<svg xmlns="http://www.w3.org/2000/svg" width="512" height="512" viewBox="0 0 512 512"><metadata><rdf:RDF xmlns:rdf="http://www.w3.org/1999/02/22-rdf-syntax-ns#" xmlns:dc="http://purl.org/dc/elements/1.1/"><rdf:Description><dc:creator>RealFaviconGenerator</dc:creator><dc:source>https://realfavicongenerator.net</dc:source></rdf:Description></rdf:RDF></metadata><rect width="512" height="512" rx="112" ry="112" fill="#0A0A0F"></rect><g transform="translate(-173 71) scale(12)" fill="white">
    <!-- Left eye -->
    <path d="M27.6349 30.7945C25.7054 30.7945 24.1414 30.5368 22.9429 30.0215C21.7445 29.5061 20.8696 28.817 20.3183 27.9541C19.767 27.0912 19.4734 26.1384 19.4374 25.0958L18.9341 6.04024C18.8861 4.24255 19.5453 2.78642 20.9115 1.67185C22.2898 0.557284 24.5309 0 27.6349 0C30.7389 0 32.9741 0.557284 34.3403 1.67185C35.7185 2.78642 36.3837 4.24255 36.3357 6.04024L35.8144 25.0958C35.7904 26.1384 35.4968 27.0912 34.9335 27.9541C34.3822 28.817 33.5134 29.5061 32.3269 30.0215C31.1404 30.5368 29.5764 30.7945 27.6349 30.7945ZM27.6349 27.8642C28.7015 27.8642 29.4566 27.6845 29.9 27.3249C30.3434 26.9534 30.5532 26.2643 30.5292 25.2576L30.0079 5.48296C29.9839 4.42831 29.7742 3.76916 29.3787 3.5055C28.9832 3.22985 28.4019 3.09203 27.6349 3.09203C26.8679 3.09203 26.2866 3.22985 25.8911 3.5055C25.4957 3.76916 25.2859 4.42831 25.262 5.48296L24.7406 25.2576C24.7167 26.2643 24.9264 26.9534 25.3698 27.3249C25.8252 27.6845 26.5803 27.8642 27.6349 27.8642Z"></path>
    <!-- Right eye -->
    <path d="M43.9096 30.7945C41.9801 30.7945 40.4161 30.5368 39.2176 30.0215C38.0192 29.5061 37.1443 28.817 36.593 27.9541C36.0417 27.0912 35.7481 26.1384 35.7121 25.0958L35.2088 6.04024C35.1609 4.24255 35.82 2.78642 37.1863 1.67185C38.5645 0.557284 40.8056 0 43.9096 0C47.0136 0 49.2488 0.557284 50.615 1.67185C51.9932 2.78642 52.6584 4.24255 52.6104 6.04024L52.0891 25.0958C52.0651 26.1384 51.7715 27.0912 51.2082 27.9541C50.657 28.817 49.7881 29.5061 48.6016 30.0215C47.4151 30.5368 45.8511 30.7945 43.9096 30.7945ZM43.9096 27.8642C44.9763 27.8642 45.7313 27.6845 46.1747 27.3249C46.6181 26.9534 46.8279 26.2643 46.8039 25.2576L46.2826 5.48296C46.2586 4.42831 46.0489 3.76916 45.6534 3.5055C45.2579 3.22985 44.6766 3.09203 43.9096 3.09203C43.1426 3.09203 42.5613 3.22985 42.1659 3.5055C41.7704 3.76916 41.5606 4.42831 41.5367 5.48296L41.0153 25.2576C40.9914 26.2643 41.2011 26.9534 41.6445 27.3249C42.0999 27.6845 42.855 27.8642 43.9096 27.8642Z"></path>
    <!-- Pupil highlights -->
    <ellipse cx="28.8855" cy="24.1322" rx="1.06616" ry="2.02571"></ellipse>
    <ellipse cx="45.0916" cy="24.1322" rx="1.06616" ry="2.02571"></ellipse>
  </g></svg>