<svg width="118" height="40" viewBox="0 0 118 40" fill="none" xmlns="http://www.w3.org/2000/svg">
<path d="M3.27318 30.5787C2.1706 30.5787 1.48148 30.5128 1.20584 30.381C0.942175 30.2492 0.798359 29.9076 0.77439 29.3563L0.00138284 1.68983C-0.0106018 1.27037 0.0553136 0.958769 0.199129 0.755031C0.354929 0.539308 0.666529 0.395492 1.13393 0.323585C1.61331 0.239692 2.3264 0.197746 3.27318 0.197746C3.44097 0.197746 3.59077 0.197746 3.7226 0.197746H7.82134C9.46323 0.197746 10.9433 0.401484 12.2616 0.808961C13.5799 1.20445 14.6166 1.83365 15.3716 2.69654C16.1267 3.54745 16.4862 4.66801 16.4503 6.05822L16.2166 14.5973C16.1926 15.5081 15.9349 16.4069 15.4436 17.2938C14.9522 18.1687 14.1252 18.8937 12.9627 19.469C11.8122 20.0443 10.2362 20.3319 8.23481 20.3319H6.00567L5.754 29.3563C5.74201 29.9076 5.5982 30.2492 5.32255 30.381C5.05889 30.5128 4.37577 30.5787 3.27318 30.5787ZM7.24608 3.30775H6.49105L6.09556 17.4017H7.44383C8.59435 17.4017 9.37335 17.2099 9.78083 16.8264C10.2003 16.4429 10.398 15.7478 10.3741 14.7411L10.1224 5.48296C10.0984 4.56014 9.90067 3.96691 9.52915 3.70325C9.15763 3.43958 8.3966 3.30775 7.24608 3.30775Z" fill="white"/>
<path d="M64.669 30.7945C62.7395 30.7945 61.1755 30.5368 59.9771 30.0215C58.7786 29.5061 57.9037 28.817 57.3524 27.9541C56.8012 27.0912 56.5075 26.1384 56.4716 25.0958L55.9682 6.04024C55.9203 4.24255 56.5794 2.78642 57.9457 1.67185C59.3239 0.557284 61.565 0 64.669 0C67.7731 0 70.0082 0.557284 71.3744 1.67185C72.7527 2.78642 73.4178 4.24255 73.3699 6.04024L73.1542 14.777C73.1422 15.5081 72.9264 15.9695 72.507 16.1612C72.0875 16.341 71.3205 16.4309 70.2059 16.4309C69.0794 16.4309 68.3124 16.341 67.9049 16.1612C67.5094 15.9695 67.2997 15.5081 67.2757 14.777L67.042 5.48296C67.018 4.42831 66.8083 3.76916 66.4128 3.5055C66.0173 3.22985 65.4361 3.09203 64.669 3.09203C63.902 3.09203 63.3208 3.22985 62.9253 3.5055C62.5298 3.76916 62.3201 4.42831 62.2961 5.48296L61.7748 25.2576C61.7508 26.2643 61.9605 26.9534 62.404 27.3249C62.8594 27.6845 63.6144 27.8642 64.669 27.8642C65.7357 27.8642 66.4907 27.6845 66.9341 27.3249C67.3896 26.9534 67.5993 26.2643 67.5633 25.2576L67.4914 23.1183C67.4675 22.3873 67.6592 21.9318 68.0667 21.7521C68.4861 21.5603 69.2472 21.4644 70.3498 21.4644C71.4404 21.4644 72.1415 21.5603 72.4531 21.7521C72.7766 21.9318 72.9264 22.3873 72.9025 23.1183L72.8485 25.1317C72.8246 26.1744 72.531 27.1272 71.9677 27.9901C71.4164 28.841 70.5475 29.5241 69.361 30.0394C68.1745 30.5428 66.6106 30.7945 64.669 30.7945Z" fill="white"/>
<path d="M80.8662 30.5787C79.7637 30.5787 79.0746 30.5128 78.7989 30.381C78.5352 30.2492 78.3914 29.9076 78.3675 29.3563L77.5945 1.68983C77.5825 1.27037 77.6484 0.958769 77.7922 0.755031C77.948 0.539308 78.2596 0.395492 78.727 0.323585C79.2064 0.239692 79.9195 0.197746 80.8662 0.197746C81.813 0.197746 82.5201 0.239692 82.9875 0.323585C83.4669 0.395492 83.7785 0.539308 83.9223 0.755031C84.0781 0.958769 84.15 1.27037 84.138 1.68983L83.7605 14.777H89.0457L88.6862 1.68983C88.6742 1.27037 88.7401 0.958769 88.884 0.755031C89.0398 0.539308 89.3514 0.395492 89.8188 0.323585C90.2981 0.239692 91.0112 0.197746 91.958 0.197746C92.9048 0.197746 93.6119 0.239692 94.0793 0.323585C94.5587 0.395492 94.8703 0.539308 95.0141 0.755031C95.1699 0.958769 95.2418 1.27037 95.2298 1.68983L94.4388 29.3563C94.4268 29.9076 94.283 30.2492 94.0074 30.381C93.7437 30.5128 93.0606 30.5787 91.958 30.5787C90.8554 30.5787 90.1663 30.5128 89.8907 30.381C89.627 30.2492 89.4832 29.9076 89.4592 29.3563L89.1536 18.1926H83.6706L83.3471 29.3563C83.3351 29.9076 83.1913 30.2492 82.9156 30.381C82.652 30.5128 81.9688 30.5787 80.8662 30.5787Z" fill="white"/>
<path d="M108.389 30.7945C106.459 30.7945 104.895 30.5368 103.697 30.0215C102.498 29.5061 101.624 28.817 101.072 27.9541C100.521 27.0912 100.227 26.1384 100.191 25.0958L99.6881 6.04024C99.6401 4.24255 100.299 2.78642 101.666 1.67185C103.044 0.557284 105.285 0 108.389 0C111.493 0 113.728 0.557284 115.094 1.67185C116.473 2.78642 117.138 4.24255 117.09 6.04024L116.568 25.0958C116.544 26.1384 116.251 27.0912 115.688 27.9541C115.136 28.817 114.267 29.5061 113.081 30.0215C111.894 30.5368 110.33 30.7945 108.389 30.7945ZM108.389 27.8642C109.456 27.8642 110.211 27.6845 110.654 27.3249C111.097 26.9534 111.307 26.2643 111.283 25.2576L110.762 5.48296C110.738 4.42831 110.528 3.76916 110.133 3.5055C109.737 3.22985 109.156 3.09203 108.389 3.09203C107.622 3.09203 107.041 3.22985 106.645 3.5055C106.25 3.76916 106.04 4.42831 106.016 5.48296L105.495 25.2576C105.471 26.2643 105.68 26.9534 106.124 27.3249C106.579 27.6845 107.334 27.8642 108.389 27.8642Z" fill="white"/>
<path d="M44.955 34.7038C44.2519 34.8804 39.6815 38.3081 37.4842 39.9999V36.2485C37.4842 35.2776 36.6053 35.182 36.1658 35.2555C34.6277 35.3658 30.5627 35.2555 26.6075 33.9315C22.6524 32.6075 20.4185 28.893 19.7959 27.2012L31.8811 30.8422C35.5725 32.8723 38.18 31.541 39.0223 30.6215L38.3631 29.7388L51.4371 27.6425C50.2286 30.8422 45.834 34.4832 44.955 34.7038Z" fill="white"/>
<path d="M27.6349 30.7945C25.7054 30.7945 24.1414 30.5368 22.9429 30.0215C21.7445 29.5061 20.8696 28.817 20.3183 27.9541C19.767 27.0912 19.4734 26.1384 19.4374 25.0958L18.9341 6.04024C18.8861 4.24255 19.5453 2.78642 20.9115 1.67185C22.2898 0.557284 24.5309 0 27.6349 0C30.7389 0 32.9741 0.557284 34.3403 1.67185C35.7185 2.78642 36.3837 4.24255 36.3357 6.04024L35.8144 25.0958C35.7904 26.1384 35.4968 27.0912 34.9335 27.9541C34.3822 28.817 33.5134 29.5061 32.3269 30.0215C31.1404 30.5368 29.5764 30.7945 27.6349 30.7945ZM27.6349 27.8642C28.7015 27.8642 29.4566 27.6845 29.9 27.3249C30.3434 26.9534 30.5532 26.2643 30.5292 25.2576L30.0079 5.48296C29.9839 4.42831 29.7742 3.76916 29.3787 3.5055C28.9832 3.22985 28.4019 3.09203 27.6349 3.09203C26.8679 3.09203 26.2866 3.22985 25.8911 3.5055C25.4957 3.76916 25.2859 4.42831 25.262 5.48296L24.7406 25.2576C24.7167 26.2643 24.9264 26.9534 25.3698 27.3249C25.8252 27.6845 26.5803 27.8642 27.6349 27.8642Z" fill="white"/>
<path d="M43.9096 30.7945C41.9801 30.7945 40.4161 30.5368 39.2176 30.0215C38.0192 29.5061 37.1443 28.817 36.593 27.9541C36.0417 27.0912 35.7481 26.1384 35.7121 25.0958L35.2088 6.04024C35.1609 4.24255 35.82 2.78642 37.1863 1.67185C38.5645 0.557284 40.8056 0 43.9096 0C47.0136 0 49.2488 0.557284 50.615 1.67185C51.9932 2.78642 52.6584 4.24255 52.6104 6.04024L52.0891 25.0958C52.0651 26.1384 51.7715 27.0912 51.2082 27.9541C50.657 28.817 49.7881 29.5061 48.6016 30.0215C47.4151 30.5368 45.8511 30.7945 43.9096 30.7945ZM43.9096 27.8642C44.9763 27.8642 45.7313 27.6845 46.1747 27.3249C46.6181 26.9534 46.8279 26.2643 46.8039 25.2576L46.2826 5.48296C46.2586 4.42831 46.0489 3.76916 45.6534 3.5055C45.2579 3.22985 44.6766 3.09203 43.9096 3.09203C43.1426 3.09203 42.5613 3.22985 42.1659 3.5055C41.7704 3.76916 41.5606 4.42831 41.5367 5.48296L41.0153 25.2576C40.9914 26.2643 41.2011 26.9534 41.6445 27.3249C42.0999 27.6845 42.855 27.8642 43.9096 27.8642Z" fill="white"/>
<ellipse cx="45.0916" cy="24.1322" rx="1.06616" ry="2.02571" fill="white"/>
<ellipse cx="28.8855" cy="24.1322" rx="1.06616" ry="2.02571" fill="white"/>
</svg>
