<svg width="84" height="60" viewBox="0 0 84 60" fill="none" xmlns="http://www.w3.org/2000/svg">
<g clip-path="url(#clip0_15226_7287)">
<path d="M27.334 45.6964C28.5143 45.6749 29.8347 45.6745 31.0144 45.6952C31.2165 45.9208 31.912 47.1739 32.1118 47.5203C32.9058 48.8864 33.6907 50.2578 34.4665 51.6344C35.0723 50.5523 35.6874 49.4754 36.3118 48.4035C36.8204 47.5199 37.3503 46.5597 37.8833 45.6956C39.061 45.6619 40.3901 45.6919 41.5794 45.6883C41.2377 46.2944 40.7735 46.9883 40.3955 47.5835L38.4751 50.5944C37.9663 51.4841 37.3677 52.345 36.8131 53.2083C36.586 53.562 36.2838 53.9509 36.1275 54.3411C35.9582 54.764 36.0658 58.772 36.0708 59.5681C35.1733 59.5612 33.7799 59.5146 32.9003 59.5819L32.8998 56.2229C32.9002 56.0025 32.9173 54.5813 32.8619 54.4902C31.0943 51.5757 29.2002 48.5485 27.334 45.6964Z" fill="#F5F5F5"/>
<path d="M57.0019 45.6785C59.7603 45.7608 62.5701 45.6498 65.3341 45.6915C66.5122 45.7089 67.7398 45.711 68.9163 45.6777C68.9126 46.4795 68.881 47.5778 68.9337 48.354C67.4939 48.3115 65.9895 48.3881 64.5529 48.3386C64.5858 48.9723 64.5542 49.964 64.5538 50.6203L64.5525 55.1991L64.559 59.5669C63.6464 59.5604 62.2836 59.5162 61.388 59.5823L61.3937 48.3334C59.9315 48.3698 58.4426 48.3334 56.9739 48.3544C56.9784 47.974 56.9439 45.9042 57.0019 45.6785Z" fill="#F5F5F5"/>
<path d="M39.5044 0H43.6435C44.1061 0.117181 45.1308 0.0975233 45.6401 0.135141C52.1194 0.613677 58.5325 2.43398 63.9461 6.10647C67.831 8.74201 71.25 12.6602 72.0981 17.4075C72.7568 21.0937 71.7601 24.79 69.6218 27.8312C65.2711 34.0554 57.143 37.5486 49.8265 38.8542C39.6639 40.6679 27.6926 39.1582 19.0486 33.2343C15.2127 30.6054 11.8191 26.6419 11.006 21.968C10.3627 18.2696 11.3741 14.5878 13.5213 11.5468C17.8627 5.39814 25.9349 1.86876 33.1851 0.664027C34.5514 0.438057 35.9262 0.266484 37.3062 0.149716C37.981 0.094881 38.8604 0.127188 39.5044 0ZM49.064 19.5157C49.2693 24.5955 48.1757 32.6287 44.6921 36.5208C44.4677 36.7719 44.1443 37.0579 43.8667 37.2523C45.0229 37.1715 46.009 37.0498 47.1538 36.8951C54.006 35.7742 60.7637 32.9031 65.0138 27.1837C68.9847 21.8399 68.5724 14.9067 64.2748 9.86905C64.2784 10.0324 64.2918 10.2812 64.2797 10.4352C63.8199 16.2858 53.6416 19.025 49.064 19.5157ZM41.4886 7.4669C38.4911 7.8683 37.6864 12.616 37.1552 14.9511C38.616 15.0169 40.2752 15.1645 41.7358 15.1423C43.1683 15.1171 44.5826 14.985 45.9648 14.9515C45.4372 12.6407 44.861 9.38978 42.7142 7.83168C42.4293 7.62494 41.851 7.44369 41.4886 7.4669ZM46.2626 19.8383C43.4706 20.0548 39.6358 20.161 36.8431 19.8348C37.0013 22.7 37.2401 25.3456 38.4163 28.0221C39.8238 31.2247 42.1943 32.3854 44.2737 28.8656C45.7298 26.204 46.164 22.8267 46.2626 19.8383ZM34.0475 19.4533C33.2614 19.405 32.1337 19.1389 31.3433 18.9775C27.2487 18.1411 18.5 15.2767 18.8431 9.96045C18.845 9.93087 18.8473 9.90134 18.8499 9.87184L18.8222 9.83964C17.7864 11.2157 16.8264 12.6092 16.244 14.2182C11.8164 26.4495 24.6277 35.2004 35.2477 36.7448C35.5469 36.7883 35.9003 36.8402 36.1899 36.902C37.0325 36.9903 37.8715 37.1145 38.7185 37.1737C38.8908 37.1858 39.0857 37.2051 39.2543 37.2366C35.0185 33.8116 33.8321 24.6279 34.0475 19.4533ZM48.6704 14.5778C51.9412 14.0147 56.4896 13.0749 58.7086 10.3655C60.0166 8.76863 58.707 6.82902 57.203 5.90597C53.0653 3.36669 47.8336 2.79681 43.0632 2.57632C42.4821 2.5525 40.7496 2.51746 40.2131 2.57025C35.9947 2.76266 32.1156 3.1891 28.0901 4.77063C25.6051 5.74699 21.9367 8.31905 25.0473 11.0826C27.4024 13.1748 31.3639 14.0253 34.4403 14.5754C34.8829 11.758 35.5709 8.95171 36.9456 6.42916C37.989 4.51446 39.7276 2.41196 42.1781 2.82549C42.3713 2.85895 42.5608 2.91185 42.7434 2.98339C46.1109 4.32705 47.6615 9.53368 48.3542 12.746C48.4699 13.2822 48.6119 14.0265 48.6704 14.5778Z" fill="#F5F5F5"/>
<path d="M48.7204 60C48.1746 59.9007 47.7363 59.8833 47.1734 59.7451C45.4317 59.3088 43.9099 58.2514 42.8949 56.7723C41.7875 55.1655 41.3691 53.184 41.7323 51.2678C42.0906 49.341 43.2029 47.6358 44.8242 46.5302C46.4608 45.4351 48.4648 45.0312 50.3985 45.4059C52.3241 45.7827 54.0196 46.9114 55.1076 48.5416C56.1947 50.1691 56.5868 52.1627 56.196 54.0794C55.8027 55.9985 54.6628 57.6834 53.0261 58.7643C52.1983 59.3129 51.2661 59.6844 50.2877 59.8553C50.0511 59.8963 49.4192 59.9591 49.2533 60H48.7204ZM49.3271 57.2325C52.1751 56.8549 53.2432 54.3456 52.9068 51.7491C52.7546 50.5726 52.2677 49.4876 51.2957 48.7547C50.5218 48.1807 49.5596 47.9189 48.6011 48.0219C47.5188 48.1681 46.5801 48.5919 45.9162 49.4884C44.4809 51.4274 44.6359 54.9747 46.6516 56.4818C47.3946 57.0377 48.4152 57.3249 49.3271 57.2325Z" fill="#F5F5F5"/>
<path d="M19.7715 60C19.225 59.9117 18.7792 59.8902 18.2265 59.7602C16.4997 59.3449 14.9819 58.3191 13.9541 56.8728C12.8259 55.305 12.3695 53.353 12.6859 51.4485C13.001 49.5136 14.0727 47.7829 15.6655 46.6359C17.2702 45.5008 19.2603 45.047 21.1997 45.3736C23.138 45.7025 24.8641 46.7919 25.9934 48.3987C27.1156 49.9904 27.5562 51.9626 27.2175 53.8793C26.8818 55.8146 25.7844 57.5356 24.17 58.6578C23.295 59.2688 22.2957 59.6796 21.2435 59.8603C20.9664 59.9077 20.3988 59.9526 20.1904 60H19.7715ZM20.3589 57.2334C23.3291 56.718 24.273 54.2196 23.8503 51.4813C23.6778 50.3636 23.0941 49.3098 22.1634 48.6681C21.4884 48.1925 20.4008 47.8894 19.5843 48.0215C17.0448 48.3788 16.0011 50.2485 15.9745 52.6558C15.9458 55.2523 17.5699 57.4388 20.3589 57.2334Z" fill="#F5F5F5"/>
<path d="M73.5993 45.6758C74.8845 45.6819 76.2168 45.6494 77.4956 45.6794C78.015 46.8255 78.5369 48.2022 79.0178 49.3884L81.63 55.8268C82.0504 56.8655 82.6442 58.4694 83.1112 59.4389V59.5442C82.1405 59.5989 80.6674 59.5548 79.6423 59.558C79.2739 58.7149 78.7633 57.3671 78.5024 56.4916C78.0061 56.5442 76.3568 56.5183 75.7773 56.5086C74.9629 56.4952 73.3506 56.5592 72.6128 56.4802C72.2865 57.4643 71.849 58.5711 71.4846 59.5532L67.9561 59.5564C68.5615 58.2608 69.2392 56.4203 69.7899 55.0623L73.5993 45.6758ZM73.5267 54.0503L75.5834 54.0519L77.5946 54.0531C77.3941 53.6346 77.1742 52.9868 77.0082 52.5403L76.0578 49.9831C75.9766 49.7648 75.6459 48.833 75.542 48.6507C74.9239 50.3854 74.2085 52.3406 73.5267 54.0503Z" fill="#F5F5F5"/>
<path d="M0 45.6932C3.96619 45.6908 7.9783 45.726 11.9383 45.6835C11.9373 46.5565 11.9209 47.4839 11.9431 48.3529C10.9645 48.3448 9.98591 48.3428 9.00729 48.3472C8.58009 48.348 7.9378 48.3687 7.52403 48.3407C7.59387 52.0546 7.46324 55.8515 7.5403 59.5669C6.47958 59.558 5.41874 59.5572 4.35798 59.5653C4.38586 55.8215 4.38379 52.0777 4.35185 48.3338C3.055 48.3549 1.27608 48.395 0 48.3355V45.6932Z" fill="#F5F5F5"/>
</g>
<defs>
<clipPath id="clip0_15226_7287">
<rect width="83.1111" height="60" fill="white"/>
</clipPath>
</defs>
</svg>
