<svg width="109" height="70" viewBox="0 0 109 70" fill="none" xmlns="http://www.w3.org/2000/svg">
<path d="M76.4766 56.4761L76.4775 56.5591C76.4817 56.8734 76.4865 57.188 76.4893 57.5024C76.4919 57.8369 76.4955 58.1719 76.5 58.5063L76.5049 58.8891C76.5088 59.6269 76.482 60.2714 76.8594 60.9223C77.0798 61.0672 77.08 61.0669 77.3633 61.1235L77.3799 61.1255C77.802 61.1634 78.2311 61.2019 78.5742 60.9223C78.9079 60.4439 78.9072 60.4436 78.9258 59.3569L78.9277 58.978C78.9334 58.576 78.9392 58.174 78.9424 57.772C78.9451 57.4227 78.9486 57.0734 78.9531 56.7241C78.9606 56.1477 78.9674 55.571 78.9727 54.9946L78.9775 54.4673H80.1875C80.1937 55.183 80.1989 55.8989 80.2021 56.6147L80.2031 56.7036C80.2045 57.0397 80.2061 57.3762 80.209 57.7124C80.2123 58.0698 80.2147 58.4272 80.2158 58.7846C80.2161 58.9214 80.2172 59.0581 80.2178 59.1948C80.2286 60.099 80.2611 60.8763 79.7334 61.6489C79.1548 62.2233 78.5792 62.4416 77.7666 62.4731C77.0183 62.4452 76.3557 62.2441 75.8115 61.7124C75.2597 61.0839 75.199 60.3882 75.1992 59.5786C75.2024 59.3797 75.2059 59.1808 75.207 58.9819C75.2081 58.6287 75.2104 58.2755 75.2148 57.9223C75.2194 57.5571 75.2225 57.1919 75.2246 56.8266C75.229 56.0402 75.236 55.2537 75.2451 54.4673H76.4561C76.4618 55.1369 76.468 55.8065 76.4766 56.4761ZM92.5029 56.6196C92.5039 56.9861 92.5048 57.3528 92.5068 57.7192C92.5091 58.0775 92.511 58.4362 92.5117 58.7944C92.5118 58.8813 92.5125 58.9683 92.5127 59.0552V59.2046C92.5193 60.0312 92.5917 60.8296 92.1494 61.56C91.717 62.063 91.3365 62.3218 90.6777 62.435C89.9356 62.5032 89.3691 62.3717 88.7617 61.9311C88.3346 61.4478 88.2945 61.0394 88.2568 60.4175H89.4678L89.4775 60.4487C89.5772 60.7482 89.6299 60.9049 89.8711 61.1235C90.1776 61.1702 90.4721 61.1735 90.7783 61.1235C91.0918 60.81 91.1685 60.4573 91.21 60.022L91.2139 59.7114L91.2207 59.3569L91.2236 58.978C91.2297 58.576 91.2358 58.174 91.2402 57.772C91.2441 57.4227 91.2489 57.0734 91.2539 56.7241C91.2623 56.1477 91.2695 55.571 91.2764 54.9946L91.2832 54.4673H92.4932C92.4973 55.1847 92.5008 55.9022 92.5029 56.6196ZM53.0557 55.7778C54.3486 54.3664 56.3054 53.8382 58.0791 54.7065C59.0729 55.3208 59.8292 56.1343 60.1152 57.2915C60.3294 58.6685 60.1366 59.7318 59.4092 60.9223C58.8239 61.7108 57.8756 62.241 56.9141 62.4116C55.8046 62.5287 54.8138 62.3881 53.8877 61.7358L53.6602 61.5278C52.9322 60.8745 52.4072 60.08 52.248 59.1069C52.1529 57.8838 52.2644 56.7555 53.0557 55.7778ZM23.8047 54.4673C25.1887 54.4672 26.3253 54.2261 27.4795 55.0024C27.8452 55.3859 28.0254 55.7073 28.0742 56.2397L28.0664 56.6098C28.0599 57.1256 28.0509 57.3507 27.7314 57.7573L27.5361 57.9975C28.0033 58.4388 28.4091 58.8212 28.4912 59.479L28.4824 59.8696C28.4766 60.4484 28.4233 60.8574 28.0967 61.3393L27.9277 61.5395L27.7627 61.7427C25.8626 62.4392 25.8624 62.4395 23.8047 62.2339V54.4673ZM100.36 54.4673C102.485 54.3562 102.486 54.3553 103.689 54.769C104.157 55.0836 104.38 55.3638 104.597 55.8794C104.706 56.6614 104.687 57.3285 104.203 57.9712L104.093 58.0981L104.376 58.312L104.536 58.4331C104.856 58.7673 104.989 59.1011 105.037 59.5581L105.032 59.9194C105.03 60.4805 104.97 60.8721 104.653 61.3393L104.483 61.5395L104.318 61.7427C102.419 62.439 102.418 62.4395 100.36 62.2339V54.4673ZM47.4072 54.4673C47.9149 54.2513 48.3959 54.325 48.9199 54.4673C48.7784 54.7961 48.5793 55.062 48.3574 55.3413C48.2599 55.4627 48.1623 55.5846 48.0654 55.7065L47.9131 55.8979C47.6732 56.1997 47.4354 56.5036 47.2002 56.8091L47.0723 56.9761C46.7095 57.4483 46.3509 57.9234 45.9951 58.4009L46.166 58.6235L46.4111 58.9429C46.6671 59.2766 46.9237 59.6102 47.1836 59.9409L47.3701 60.1782C47.4956 60.3379 47.6215 60.498 47.7471 60.6577C48.1503 61.1652 48.5129 61.6618 48.8193 62.2339C48.3454 62.3259 47.8954 62.3788 47.415 62.3071C46.7197 61.8069 46.7201 61.8062 46.2949 61.021C46.04 60.5847 45.7577 60.1773 45.459 59.77L45.2637 59.5034L44.6836 58.7036L44.583 62.2339H43.3721V54.4673H44.583L44.6836 58.0981C44.8874 57.8178 45.0906 57.537 45.2979 57.2593C45.5324 56.9458 45.7621 56.6309 45.9795 56.3052C46.4044 55.6619 46.8198 54.9754 47.4072 54.4673ZM82.709 54.4673C82.8098 54.6688 82.8107 54.6684 82.9248 54.8491L83.0684 55.0688L83.2285 55.3169C83.3461 55.497 83.4646 55.6767 83.582 55.8569L83.7637 56.1362C83.9347 56.3986 84.1053 56.6613 84.2754 56.9243L84.4199 57.1479C84.5117 57.2902 84.6036 57.4324 84.6953 57.5747C85.0877 58.1854 85.0874 58.1857 86.2393 59.9136V54.4673H87.4502V62.2339C86.3506 62.3515 86.3499 62.3507 85.9805 62.0473L85.8291 61.7866L85.6514 61.4956C85.5327 61.2818 85.4101 61.0695 85.2842 60.8598L85.0908 60.5376C84.8304 60.0886 84.561 59.6496 84.2754 59.2163C84.0524 58.8795 83.8346 58.5392 83.6172 58.1987L82.6084 56.5854V62.2339H81.3984V54.4673H82.709ZM96.8301 54.4673C96.9485 54.5731 96.9488 54.5729 97.0205 54.7778L97.1309 55.061L97.2578 55.3862C97.378 55.6958 97.4984 56.0056 97.6191 56.3149L97.6982 56.5161C97.9096 57.058 98.1227 57.5996 98.3379 58.1401C98.4403 58.3972 98.5423 58.6544 98.6445 58.9116C98.712 59.0814 98.7801 59.2516 98.8477 59.4214C99.2182 60.3481 99.602 61.2667 99.8564 62.2339L99.5732 62.2368L99.207 62.2397C98.9864 62.2419 98.7655 62.2412 98.5449 62.2339C98.3393 61.9313 98.3399 61.9308 98.2256 61.5747L98.1416 61.3511L98.0586 61.1323L97.9775 60.9175C97.9281 60.7858 97.8818 60.6529 97.8389 60.519L97.7383 60.0141L94.8135 60.1157L94.0059 62.2339H92.6953C92.6794 61.9464 92.6789 61.9457 92.7568 61.7436L92.8486 61.5239L92.9561 61.2583C93.5216 59.8879 94.0577 58.506 94.5928 57.1235C94.6814 56.8945 94.7697 56.665 94.8584 56.436C95.0905 55.8367 95.322 55.2366 95.5537 54.6372L95.6201 54.4673L95.8809 54.4634L96.2188 54.4604C96.4225 54.4583 96.6265 54.46 96.8301 54.4673ZM7.86816 55.5766H6.45605V62.2339H5.24512V55.5766H3.73242V54.4673H7.86816V55.5766ZM9.68359 57.6948H12.709V54.4673H13.9199V62.2339H12.709V58.9048H9.68359V62.2339H8.47266V54.4673H9.68359V57.6948ZM19.2656 55.5766H16.4414V57.7954H19.2656V58.9048H16.4414V61.1235H19.2656V62.2339H15.2314V54.4673H19.2656V55.5766ZM32.5801 54.4673C32.7781 54.9235 32.9684 55.3821 33.1523 55.8442L33.251 56.0952C33.3608 56.3718 33.4706 56.6486 33.5801 56.9253L33.6953 57.2153C34.3544 58.8802 34.9963 60.55 35.6055 62.2339H34.1934L33.3867 60.1157L30.4619 60.0141C30.2136 61.1659 30.2129 61.1666 29.6543 62.2339H28.3438C28.436 61.9572 28.5264 61.6795 28.627 61.4057L28.708 61.1958L28.8008 60.9526L28.9014 60.6938C29.0108 60.4096 29.1207 60.1254 29.2305 59.8413L29.3457 59.5415C30.002 57.8423 30.6711 56.1497 31.3691 54.4673H32.5801ZM37.3203 54.4673C37.5329 54.7184 37.5333 54.7183 37.7119 54.9966L37.8369 55.186C38.2242 55.7685 38.609 56.3527 38.9922 56.938L39.1865 57.2339C39.4405 57.6215 39.6915 58.0112 39.9424 58.4009L40.9512 60.0141V54.4673H42.1621V62.2339H40.9512C40.628 61.9513 40.6281 61.9508 40.4863 61.7007L40.3584 61.4643L40.0576 60.9634C39.8419 60.5889 39.6194 60.2211 39.3867 59.8569L39.3623 59.8188C39.1937 59.5563 39.0248 59.2927 38.8584 59.0288C38.4397 58.3645 38.4394 58.3647 37.3203 56.686V62.2339H36.1104V54.4673H37.3203ZM64.957 55.5766H62.2334V57.7954H64.957V58.9048H62.2334V62.2339H61.0234V54.4673H64.957V55.5766ZM69.4961 54.4673C71.9311 54.3688 71.9314 54.3683 73.127 54.6684C73.711 55.0503 74.1434 55.5625 74.2979 56.2505C74.3759 56.9061 74.3826 57.5234 74.0088 58.0884C73.4194 58.8185 72.8332 59.0796 71.917 59.2075H70.7061V62.2339H69.4961V54.4673ZM57.5938 55.8794C56.5869 55.3215 55.479 55.4566 54.5615 56.0932C53.9197 56.6731 53.5714 57.3277 53.4629 58.186C53.4504 58.9604 53.6567 59.7224 54.1641 60.3169C54.7169 60.8697 55.4235 61.2444 56.2197 61.2563C56.9989 61.1891 57.636 60.9287 58.1738 60.3481C58.8494 59.5071 58.996 58.7695 58.9053 57.6948C58.6602 56.9597 58.2422 56.3074 57.5938 55.8794ZM25.0146 61.1235C25.5321 61.1395 26.0481 61.1747 26.5596 61.0815C26.9128 60.9564 27.0376 60.8118 27.2334 60.4936C27.3652 59.9993 27.3503 59.6424 27.1201 59.1821C26.6069 58.7031 26.6067 58.7036 25.0146 58.7036V61.1235ZM101.571 61.1235C102.089 61.1395 102.605 61.1747 103.116 61.0815C103.469 60.9564 103.594 60.8119 103.79 60.4936C103.922 59.9993 103.907 59.6424 103.677 59.1821C103.163 58.7031 103.163 58.7036 101.571 58.7036V61.1235ZM31.873 56.2827C31.7726 56.5301 31.6748 56.7777 31.584 57.0288C31.5547 57.113 31.5265 57.1951 31.498 57.2768C31.4659 57.3689 31.4345 57.4589 31.4033 57.5483C31.3544 57.689 31.3536 57.6888 31.3057 57.8266C31.1921 58.1523 31.0792 58.4784 30.9658 58.8042H32.8818C32.8818 58.5016 32.8817 58.5012 32.8076 58.2632C32.7561 58.1238 32.7566 58.1233 32.7061 57.9868C32.6686 57.8847 32.6321 57.7851 32.5957 57.686C32.5561 57.5797 32.517 57.4767 32.4785 57.3735C32.3446 57.0099 32.2104 56.6459 32.0752 56.2827H31.873ZM95.9424 56.9096C95.9032 57.0114 95.8652 57.1107 95.8271 57.2095C95.7884 57.309 95.7514 57.4058 95.7139 57.5024C95.6767 57.5992 95.6406 57.6936 95.6045 57.7876C95.4698 58.136 95.392 58.4311 95.3174 58.8042H97.2334C97.2334 58.6885 97.233 58.6884 96.9561 57.9204C96.8986 57.7619 96.8991 57.7614 96.8428 57.6059C96.8049 57.5001 96.7682 57.3972 96.7314 57.2944C96.6946 57.1928 96.6588 57.0942 96.623 56.9956C96.5109 56.6848 96.4096 56.4586 96.2246 56.1811C96.1303 56.4237 96.036 56.6668 95.9424 56.9096ZM70.7061 57.9975C70.976 57.9997 71.238 58.0013 71.5 58.0034C72.0232 58.0092 72.3479 58.0204 72.7861 57.7075C73.049 57.3616 73.0661 57.2504 73.0762 56.8305C73.0715 56.4125 73.0182 56.1828 72.7236 55.8794C72.1817 55.5768 72.1814 55.5766 70.7061 55.5766V57.9975ZM25.0146 55.6772V57.6948H26.0234C26.419 57.5629 26.575 57.4203 26.8301 57.0893C26.8902 56.707 26.9047 56.3305 26.7295 55.98C26.2674 55.6361 26.2672 55.6359 25.0146 55.6772ZM101.571 55.6772V57.6948H102.479C102.952 57.5765 103.096 57.477 103.387 57.0893C103.446 56.7067 103.461 56.3307 103.286 55.98C102.824 55.6361 102.824 55.6359 101.571 55.6772ZM44.2803 46.7007C45.7825 45.7368 47.7928 46.4141 49.3066 46.9966C51.7441 47.9438 53.8512 48.2396 56.3896 47.4302C58.6111 46.7174 61.1376 45.7931 63.4443 46.7007C63.345 46.9598 63.2847 47.0806 63.0381 47.2173C62.6801 47.3442 62.3218 47.4682 61.9746 47.6225C61.5742 47.8005 61.2388 47.9347 60.7969 47.9233C59.7765 47.8881 58.945 48.0763 58.0088 48.4673L57.6885 48.604C57.4765 48.6946 57.2646 48.7855 57.0527 48.8764C55.1808 49.6825 53.3455 49.7811 51.4082 49.1157C51.2562 49.0628 51.1037 49.0109 50.9512 48.9595C50.7111 48.8791 50.4714 48.7978 50.2314 48.7173C49.0512 48.3159 47.9027 48.1085 46.6631 47.9692C46.5072 47.9529 46.3513 47.9338 46.1963 47.9106C46.0646 47.8448 45.9311 47.7823 45.7959 47.7241L45.5557 47.6235L45.2959 47.5141L45.0234 47.3999C44.766 47.2917 44.5085 47.1837 44.251 47.0757L44.0781 47.0024L44.2803 46.7007ZM43.9775 43.1704C45.7518 42.5124 47.6983 42.5576 49.4502 43.2427C49.6311 43.314 49.8125 43.384 49.9941 43.4536C50.2747 43.5604 50.5556 43.6674 50.8359 43.7749C52.7909 44.5445 54.3238 44.5859 56.2891 43.7944C58.7013 42.809 60.7819 42.3319 63.332 43.2182C63.6553 43.3335 63.979 43.4471 64.3037 43.5581L64.502 43.6255C65.3048 43.8987 66.1169 44.1129 66.9424 44.3052L67.2773 44.3804C67.0728 44.7958 67.0725 44.796 66.6904 45.0727L66.4951 45.2124L66.3057 45.3569L66.1191 45.4917L65.9492 45.6157C65.4853 45.6884 65.4852 45.6877 65.0322 45.5005C64.6827 45.3378 64.3314 45.1791 63.9785 45.0239C61.6513 44.0313 59.6559 44.3886 57.373 45.2886C55.5209 46.0192 53.8405 46.5641 51.873 45.9116L51.6494 45.8364C51.12 45.6599 50.594 45.4762 50.0713 45.2807C48.509 44.696 47.1247 44.2633 45.4336 44.4116L45.0869 44.4809C44.3692 44.6242 43.7374 44.8825 43.082 45.1997L43.0449 45.2182C42.6948 45.3926 42.3543 45.5622 41.9795 45.6792C41.7241 45.7157 41.7241 45.7152 41.4307 45.477C41.0794 45.2003 40.7109 44.9888 40.3184 44.7759L40.1445 44.6831V44.4809C40.9319 44.2827 41.6876 44.0344 42.4453 43.7446C42.863 43.5844 43.2818 43.4276 43.7012 43.272L43.9775 43.1704ZM56.1621 40.0073C58.962 38.9916 61.5686 38.1838 64.4248 39.4643C66.2689 40.3007 68.0789 40.7988 70.1006 40.2993L70.3027 40.2446L70.6348 40.1587L70.9141 40.0815L71.2021 40.0014L71.4121 39.9429L71.3428 40.1948C71.0247 41.0427 70.5027 41.748 69.6846 42.1714C68.3327 42.6888 66.888 42.2286 65.5996 41.7397C62.7347 40.6406 60.5021 40.2274 57.5625 41.3989L57.5078 41.4204C57.0592 41.5992 56.6103 41.778 56.1553 41.9399C54.3609 42.531 52.391 42.455 50.6982 41.6274L50.6934 41.6245C49.7577 41.1614 48.8684 40.7219 47.8271 40.5737L47.5078 40.5473C46.1801 40.4347 44.9263 40.7617 43.7031 41.2505C42.6344 41.6856 41.5685 42.1084 40.4277 42.311C39.1768 42.4801 38.0849 42.3905 37.0361 41.644C36.501 41.1837 36.0006 40.6617 35.9082 39.9429L36.0635 40.0298C38.0301 40.9365 40.1339 40.5446 42.1035 39.8804C44.7168 38.9904 47.205 38.2515 49.8467 39.4614C51.9719 40.4413 53.919 40.8155 56.1621 40.0073ZM56.8418 35.9468C59.2243 34.9868 61.1989 34.484 63.6484 35.4477C66.6279 36.6215 68.8466 37.0469 71.917 35.8071C72.748 35.4715 73.5626 35.1946 74.4385 35.0005C74.3789 35.2407 74.3171 35.4801 74.2529 35.7192L74.1426 36.0649L74.0381 36.4126C73.8082 36.751 73.7453 36.7719 73.3691 36.8784C72.9161 36.9889 72.5277 37.1431 72.1094 37.3471C71.0569 37.8729 70.0907 38.3781 68.8896 38.3735L68.582 38.3667C67.46 38.3652 66.4906 38.1753 65.4199 37.8481C64.9432 37.7017 64.4648 37.56 63.9863 37.4194L63.6455 37.3198C61.2591 36.6137 59.1803 36.6207 56.8564 37.5151C54.661 38.365 52.9147 38.5449 50.666 37.771C50.0191 37.5461 49.3693 37.3298 48.7178 37.1186C46.6858 36.49 44.7686 36.5211 42.8643 37.5151C42.7292 37.5857 42.5934 37.656 42.458 37.7261C40.3812 38.765 38.393 38.4492 36.2715 37.7632C35.9961 37.6727 35.7208 37.5826 35.4443 37.4956C35.2607 37.4379 35.0767 37.3801 34.8936 37.3208L34.6328 37.2358C34.3373 37.1437 34.0735 37.045 33.79 36.9165L33.7227 36.7182C33.6888 36.5132 33.6892 36.513 33.5947 36.2964C33.3882 35.8636 33.2342 35.4834 33.1846 35.0005C33.5945 35.0579 33.595 35.0575 33.9834 35.2153C34.1518 35.2789 34.3205 35.3422 34.4893 35.4048C34.7605 35.5051 35.0316 35.6059 35.3027 35.7065C37.6461 36.5823 39.5143 37.0243 41.9053 36.02C44.445 34.9532 46.3277 34.5963 48.9766 35.5356C51.7522 36.5278 53.9979 37.0806 56.8418 35.9468ZM46.8047 30.9487L47.0029 30.9653C47.8261 31.0252 48.5858 31.2027 49.3525 31.5063C49.5058 31.568 49.6597 31.6285 49.8135 31.6889C50.1269 31.8119 50.4401 31.9361 50.752 32.063C52.8763 32.9273 54.6676 32.9008 56.7861 32.0122C57.1132 31.8744 57.4418 31.7413 57.7715 31.6098C60.2378 30.6463 62.4354 30.8322 64.8564 31.8735C65.0436 31.955 65.2312 32.0365 65.4189 32.1167C67.4643 32.9703 69.3471 32.9223 71.4023 32.0815L71.4854 32.0473C72.8006 31.508 74.0948 30.977 75.5479 31.0659C75.5707 31.4464 75.5621 31.7329 75.4346 32.0942C75.0452 32.6781 74.553 32.8285 73.8955 32.9702C73.098 33.1339 72.3473 33.3205 71.6025 33.6557C71.3847 33.7561 71.1653 33.8531 70.9453 33.9487C68.9324 34.7963 67.0653 34.7276 65.0459 33.9096C63.3796 33.2243 61.7994 32.6817 59.9688 32.8335L59.6113 32.8823C58.8724 32.9804 58.2375 33.219 57.5557 33.5161C57.2994 33.629 57.0423 33.7404 56.7842 33.8491C54.4975 34.8018 52.6067 34.7289 50.3203 33.7876C49.9507 33.6351 49.5803 33.4862 49.208 33.3403C47.1652 32.5605 45.2297 32.6162 43.2275 33.4936L43.1846 33.5132C42.6622 33.7479 42.14 33.9829 41.6094 34.1987C39.5895 34.9586 37.6319 34.5029 35.709 33.6831C34.6727 33.2369 33.665 32.8468 32.5566 32.6284L32.2773 32.5796C32.2252 32.3306 32.1772 32.0824 32.1406 31.8305L32.1133 31.5962C32.0821 31.3666 32.0818 31.3662 32.0752 31.1675L32.1758 31.0659C33.2712 31.1362 33.2717 31.1369 34.3184 31.5063C37.0911 32.4656 39.4147 33.2275 42.2627 32.0747L42.2959 32.061C43.746 31.4731 45.2074 30.881 46.8047 30.9487ZM54.0547 4.72801L54.3662 4.7407C59.4549 4.93741 64.206 6.57267 68.1289 9.85398L68.2861 9.98582C68.6707 10.3046 69.0266 10.6142 69.3516 10.9946C69.597 11.2966 69.5968 11.2971 69.7451 11.4419C69.8629 11.5532 69.9796 11.6666 70.0947 11.7807C74.3697 16.3468 75.9651 22.7401 75.8506 28.8471C74.5032 28.8893 73.2916 29.1618 72.0391 29.6479C70.784 30.1397 69.6111 30.57 68.249 30.603L67.958 30.6059C66.7695 30.6198 65.7564 30.32 64.6699 29.853C63.013 29.1352 61.4566 28.6282 59.6279 28.9087L59.4092 28.9477C58.6427 29.0739 57.9429 29.3013 57.2188 29.5766C54.8498 30.4857 53.0124 30.9332 50.585 30.0044L50.2314 29.8686C47.74 28.9372 45.5816 28.5083 43.082 29.6421C42.9263 29.7134 42.7701 29.7847 42.6143 29.8559C40.1611 30.9659 38.0782 30.6733 35.6416 29.7554C34.4748 29.3124 33.3431 28.9353 32.1143 28.7055L31.7725 28.646C31.6791 28.1954 31.6593 27.7641 31.6582 27.3061L31.6592 27.0317C31.6618 26.2995 31.6761 25.5712 31.7393 24.8413L31.7725 24.5102C32.3318 18.8844 34.9668 13.8154 39.1963 10.0932L39.4385 9.88523C43.456 6.40839 48.7536 4.62153 54.0547 4.72801Z" fill="#F5F5F5"/>
<rect x="3.73242" y="51.1383" width="101.268" height="0.806916" fill="#F5F5F5"/>
<rect x="3.73242" y="64.4524" width="101.268" height="0.806916" fill="#F5F5F5"/>
</svg>
