<svg width="121" height="60" viewBox="0 0 121 60" fill="none" xmlns="http://www.w3.org/2000/svg">
<g clip-path="url(#clip0_15226_7295)">
<path d="M120.945 0.0419922C119.321 1.54715 117.461 3.50604 115.868 5.09961L106.186 14.7812L76.7129 44.2461L66.0791 54.876L62.7988 58.1602C62.3536 58.6057 61.5046 59.502 61.0469 59.8789L21.5332 59.8809L0 59.877V0H120.945V0.0419922ZM17.0947 10.623C16.8112 10.6148 15.4496 10.6129 15.21 10.6553C11.2204 10.9433 7.05748 12.0908 4.3125 15.1885C2.38174 17.3675 1.53201 19.9355 1.68555 22.7812C1.98888 28.402 6.18346 31.1263 10.9453 32.9131C11.8568 33.3015 12.9097 33.5699 13.8271 33.8936C15.5123 34.4881 19.7606 35.4105 19.8867 37.6104C20.0276 40.073 17.463 40.6769 15.5938 40.7939C11.5551 41.0468 8.84317 39.9049 5.44238 38.0068L2.93066 42.8408C2.55499 43.5646 1.99389 44.5732 1.66309 45.2998C9.08133 49.3606 19.5582 50.928 26.499 45.0771L25.3311 48.2539L36.2178 48.2559L37.8682 42.751C42.3016 44.1102 45.9998 44.08 50.4248 42.8027C51.042 44.624 51.6694 46.4418 52.3076 48.2559L69.8193 48.2549V36.8359C73.7943 36.8431 77.5813 37.0694 81.3496 35.4834C86.2179 33.4346 88.5254 29.2893 88.5195 24.0928C88.516 23.3587 88.4739 22.6252 88.3936 21.8955C86.9101 11.0749 76.7685 11.2453 68.2842 11.2422L59.8789 11.2393L59.8799 29.8301C59.8799 32.9775 59.9461 36.3821 59.8682 39.5127L52.9746 20.7764C51.8147 17.6226 50.5862 14.3989 49.4688 11.2363H39.293L33.4268 26.6816C32.4056 29.3697 31.366 32.2597 30.2861 34.9121C29.8562 32.367 28.4736 30.3876 26.3867 28.8984C25.0492 27.9441 23.5418 27.2354 22.0146 26.6416C19.8711 25.8082 12.2666 23.938 11.835 21.4053C11.7506 20.9092 11.943 20.4414 12.2324 20.0439C12.834 19.218 14.0046 18.884 14.9707 18.7441C15.8529 18.6164 16.7524 18.6391 17.6396 18.6982C20.5872 18.8948 23.1495 19.7641 25.7939 21.0195L30.0557 13.8096C26.1769 11.9278 21.4152 10.7492 17.0947 10.623Z" fill="#F5F5F5"/>
<path d="M69.8223 19.0321L71.8414 19.032C75.2353 19.046 78.8801 19.6617 78.8069 23.9085C78.7827 25.298 78.4378 26.2596 77.4292 27.2372C75.4573 28.9017 72.2766 28.6416 69.8223 28.639V19.0321Z" fill="#F5F5F5"/>
<path d="M44.2463 22.9529C44.3868 23.1994 45.1958 25.8657 45.3345 26.3051L48.0482 34.8497C46.6946 35.2875 45.7378 35.4589 44.3191 35.4873C42.8018 35.4696 41.8936 35.2913 40.4707 34.8104C41.7712 30.9345 43.0033 26.8594 44.2463 22.9529Z" fill="#F5F5F5"/>
</g>
<defs>
<clipPath id="clip0_15226_7295">
<rect width="120.945" height="60" fill="white"/>
</clipPath>
</defs>
</svg>
