<svg width="72" height="70" viewBox="0 0 72 70" fill="none" xmlns="http://www.w3.org/2000/svg">
<g clip-path="url(#clip0_15226_7202)">
<path d="M36.0234 49.417V49.6517H36.0265L36.0234 49.417Z" fill="#F5F5F5"/>
<path d="M29.9425 47.2107V52.7986C29.7718 52.7824 29.6011 52.7641 29.4304 52.7437L28.9152 52.6858C28.5768 52.6492 28.2445 52.6066 27.9092 52.5547V47.3509C28.5838 47.2664 29.2627 47.2196 29.9425 47.2107Z" fill="#F5F5F5"/>
<path d="M39.1523 15.0364C37.7317 15.1187 30.8909 15.7589 26.9766 20.6914V18.9354C27.6107 17.838 30.7354 13.1859 38.5609 12.6311C38.7896 13.4146 38.9908 14.2133 39.1523 15.0364Z" fill="#F5F5F5"/>
<path d="M39.5639 34.0561V35.9736C38.2866 35.9736 30.8695 36.0071 26.9766 38.5557V37.0314C27.4613 36.6138 31.3146 33.6994 39.5639 34.0561Z" fill="#F5F5F5"/>
<path d="M39.9366 18.3437H39.9336V18.2827L39.9366 18.3437Z" fill="#F5F5F5"/>
<path d="M39.5639 18.3832V20.7854C38.1006 20.8067 30.8299 21.1482 26.9766 25.4222V23.7211C27.4216 23.1114 31.2445 18.3801 39.384 18.3801L39.5639 18.3832Z" fill="#F5F5F5"/>
<path d="M39.5182 23.8519V25.8792C38.1494 25.9127 31.0311 26.245 26.9766 29.6136V27.9339C27.4369 27.437 31.1622 23.8489 39.1859 23.8489L39.5182 23.8519Z" fill="#F5F5F5"/>
<path d="M39.5639 28.9622V30.962C38.189 30.9833 30.5677 31.3065 26.9766 34.3153V32.3369C27.7143 31.7942 31.6103 29.2365 39.5639 28.9622Z" fill="#F5F5F5"/>
<path d="M39.5638 38.7167V40.3446C37.8383 40.4025 30.2384 40.7988 26.9795 43.0029V41.2134C27.4794 40.9086 31.2261 38.7136 38.8961 38.7136L39.5638 38.7167Z" fill="#F5F5F5"/>
<path d="M39.5639 43.4572V45.7832C35.8813 45.0729 30.9915 46.3929 29.3849 46.8684C28.5773 46.8995 27.7727 46.985 26.9766 47.1245V45.5698C27.3424 45.3594 31.1835 43.2895 39.5639 43.4572Z" fill="#F5F5F5"/>
<path d="M44.5514 14.2133V35.5285H43.082V11.686L44.5514 14.2133Z" fill="#F5F5F5"/>
<path d="M42.7413 35.5276H41.3024L41.3268 52.8188C40.8604 52.8645 40.3878 52.9041 39.9123 52.9407L39.9275 20.0168V18.3584V18.2608C39.9275 18.2456 39.9275 18.2273 39.9275 18.212V18.1633C39.9275 18.0566 39.9123 17.9529 39.9001 17.8584C39.8879 17.7639 39.8818 17.6115 39.8696 17.4926C39.8422 17.2335 39.8147 16.9743 39.7812 16.7152C39.7477 16.4561 39.7141 16.2 39.6714 15.9439C39.644 15.758 39.6105 15.572 39.5739 15.3861C39.5616 15.2835 39.5432 15.1817 39.519 15.0812C39.327 14.0813 39.077 13.1027 38.8057 12.176C39.2203 11.99 41.2079 11.1547 42.7413 11.0999V35.5276Z" fill="#F5F5F5"/>
<path d="M39.9376 18.1486V18.1974C39.9376 18.0785 39.9224 17.9535 39.9102 17.8315C39.9132 17.9382 39.9193 18.0419 39.9376 18.1486Z" fill="#F5F5F5"/>
<path d="M39.5631 45.9697V52.963C38.3894 53.0484 37.2096 53.088 36.0329 53.0911L36.0603 51.8107V51.4113L36.039 50.0151V49.6523V48.0549L35.9292 48.0061C35.504 47.8213 35.0695 47.6585 34.6275 47.5184C33.6966 47.2229 32.7371 47.0267 31.765 46.9331C31.2131 46.8742 30.6584 46.8468 30.1035 46.8508C32.1033 46.2898 36.3133 45.3265 39.5631 45.9697Z" fill="#0F0F0F"/>
<path d="M36.0265 49.6517H36.0234V49.417L36.0265 49.6517Z" fill="#0F0F0F"/>
<path d="M38.453 12.2229C31.2402 12.7716 27.9478 16.7957 26.9814 18.265V18.1157C27.0089 17.6553 27.0577 17.2011 27.1186 16.7713C28.3045 8.57076 35.2429 5.08936 35.4685 4.97656C36.695 7.28997 37.6945 9.71674 38.453 12.2229Z" fill="#F5F5F5"/>
<path d="M42.4823 1.69531V4.59445C41.4763 4.62189 38.5528 4.8048 36.3487 5.85044C35.9859 5.10965 35.739 4.67676 35.739 4.65847L35.6628 4.53348L35.6048 4.55177H35.5561H35.5225C32.5137 5.54254 30.0352 8.57276 28.4805 10.9232C29.2836 8.58579 30.8201 6.57029 32.8612 5.17672L32.9313 5.13099C33.766 4.55263 34.6566 4.05935 35.5896 3.65856L35.6933 3.61283C37.8266 2.58114 40.1245 1.93211 42.4823 1.69531Z" fill="#F5F5F5"/>
<path d="M42.481 7.10958V8.74968C41.7219 8.74968 39.6886 8.88687 38.0424 9.82886C37.8107 9.21915 37.579 8.60945 37.3564 8.08511C37.9844 7.84427 40.4598 6.86265 42.481 7.10958Z" fill="#F5F5F5"/>
<path d="M44.5516 9.09372V13.447L43.0822 10.9259L43.0029 0C43.9663 3.26801 43.9846 9.09372 43.9846 9.09372H44.5516Z" fill="#F5F5F5"/>
<path d="M58.184 34.4499C58.1854 37.5608 57.5394 40.6379 56.2872 43.4857C55.0349 46.3334 53.2038 48.8894 50.9102 50.9911L50.523 51.0978C50.3188 51.1588 50.1176 51.2137 49.9133 51.2624C49.7091 51.3112 49.5201 51.3691 49.325 51.4149C49.0201 51.4972 48.7153 51.5734 48.4104 51.6435C50.728 49.9311 52.6762 47.7688 54.1387 45.2859C55.6012 42.8031 56.5478 40.0507 56.9219 37.1935L46.749 37.6752L45.8984 35.8461L57.0773 35.3187C57.0773 35.0352 57.0956 34.7486 57.0956 34.4621C57.1113 30.9308 56.2476 27.4512 54.5823 24.3372C52.917 21.2232 50.5025 18.5728 47.5568 16.6252V15.3296C50.8177 17.3393 53.5076 20.1532 55.3685 23.5013C57.2294 26.8494 58.1989 30.6194 58.184 34.4499Z" fill="#F5F5F5"/>
<path d="M15.4351 46.792L14.2157 47.5572L14.0663 47.3163C13.7462 46.8103 13.3073 46.7402 12.7921 47.0633L12.3744 47.3285C11.8592 47.6547 11.7342 48.0785 12.0696 48.5876L12.536 49.3314L15.7583 47.295L15.4351 46.792ZM12.6762 48.5357L12.5238 48.298C12.4201 48.1333 12.4384 47.9931 12.6701 47.8529L13.1548 47.548C13.3835 47.4017 13.5146 47.4413 13.6152 47.6059L13.7676 47.8437L12.6762 48.5357Z" fill="#F5F5F5"/>
<path d="M14.2277 44.57C13.9625 44.0487 13.5174 43.9298 12.9717 44.2042L10.3652 45.4998L10.6213 46.0089L13.2461 44.692C13.49 44.57 13.6302 44.6341 13.7156 44.8017C13.8009 44.9694 13.7674 45.1249 13.5235 45.2468L10.8957 46.5638L11.1639 47.0973L13.7582 45.7986C14.3283 45.5242 14.4899 45.0974 14.2277 44.57Z" fill="#F5F5F5"/>
<path d="M13.3615 42.7654L10.7764 43.7378L13.1085 42.0703L12.8921 41.4941L9.32227 42.8355L9.51127 43.3324L11.6452 42.5306L9.72162 43.8994L9.98684 44.6036L13.5506 43.2623L13.3615 42.7654Z" fill="#F5F5F5"/>
<path d="M12.6905 40.7781C12.5716 40.3452 12.2759 40.0038 11.5413 40.205L8.7793 40.9671L8.94392 41.5463L11.7425 40.7689C12.0229 40.6927 12.1327 40.8208 12.1845 41.0037C12.2057 41.0694 12.2221 41.1367 12.2333 41.2049L12.7576 41.0586C12.7415 40.9637 12.7191 40.87 12.6905 40.7781Z" fill="#F5F5F5"/>
<path d="M12.2248 38.9824L11.5298 39.0098L11.3956 38.2873L12.0541 38.0587L11.9444 37.449L8.31055 38.7415L8.46907 39.6043L12.3254 39.5098L12.2248 38.9824ZM9.05743 39.0952L10.8865 38.4611L11.0054 39.022L9.05743 39.0952Z" fill="#F5F5F5"/>
<path d="M11.8166 36.0764C11.8234 35.9526 11.8017 35.829 11.7531 35.715C11.7045 35.601 11.6304 35.4997 11.5363 35.4189C11.4423 35.3382 11.331 35.2801 11.211 35.2493C11.0909 35.2184 10.9654 35.2156 10.8441 35.2411L10.5393 35.2655C10.1338 35.296 9.85944 35.4453 9.75884 35.7746C9.67558 35.6454 9.55449 35.545 9.41209 35.4872C9.2697 35.4294 9.11293 35.4169 8.96318 35.4514H8.82904C8.24068 35.4972 7.97546 35.7837 8.02423 36.4056L8.0974 37.3202L11.8958 37.0153L11.8166 36.0764ZM8.59126 36.6861L8.56382 36.3995C8.56382 36.1892 8.66137 36.0947 8.92964 36.0672L9.14609 36.0489C9.45094 36.0276 9.55459 36.1526 9.57288 36.3751L9.59117 36.6068L8.59126 36.6861ZM10.1369 36.5672L10.1155 36.2989C10.0911 36.0276 10.1917 35.9057 10.5454 35.8782L10.8746 35.8508C11.1581 35.8294 11.2557 35.927 11.274 36.1313L11.3014 36.4727L10.1369 36.5672Z" fill="#F5F5F5"/>
<path d="M7.97947 32.7698L7.95508 33.3795L11.7627 33.5502L11.7871 32.9405L7.97947 32.7698Z" fill="#F5F5F5"/>
<path d="M12.0502 30.4306L8.27306 29.9551L8.20294 30.4855L10.468 30.766L8.12673 31.0952L8.03223 31.8391L11.8154 32.3146L11.8795 31.775L9.13579 31.4306L11.9648 31.0373L12.0502 30.4306Z" fill="#F5F5F5"/>
<path d="M10.771 28.898L10.9417 28.145L10.4112 28.0261L10.2405 28.776L9.11868 28.523L9.34122 27.5597L8.81078 27.4377L8.4541 28.9803L12.1672 29.8278L12.3013 29.2455L10.771 28.898Z" fill="#F5F5F5"/>
<path d="M12.3395 25.8702L10.4585 25.2422C9.88237 25.0501 9.45253 25.2422 9.26657 25.8031C9.08061 26.364 9.30925 26.7756 9.87627 26.9676L11.7572 27.5926C12.3364 27.7846 12.7693 27.5926 12.9553 27.0347C13.1412 26.4768 12.9187 26.0622 12.3395 25.8702ZM12.4462 26.8579C12.3852 27.0408 12.248 27.1231 11.9919 27.0378L10.0378 26.3884C9.78177 26.3 9.73299 26.1567 9.78177 25.9738C9.83054 25.7909 9.97687 25.7117 10.236 25.8001L12.1962 26.4494C12.4462 26.5226 12.501 26.678 12.4462 26.8579Z" fill="#F5F5F5"/>
<path d="M12.9311 24.1048L13.4768 24.3487C13.6153 24.4256 13.7676 24.4743 13.925 24.492L14.1749 23.9341C14.016 23.9231 13.8611 23.8784 13.7207 23.803L13.1842 23.5652C12.8244 23.4006 12.5196 23.3732 12.2696 23.5927C12.2573 23.4389 12.1989 23.2923 12.1021 23.1722C12.0054 23.052 11.8746 22.9638 11.727 22.9189L11.4496 22.8001C10.913 22.5562 10.535 22.6812 10.2881 23.2482L9.9375 24.0835L13.4159 25.6321L13.6597 25.0895L12.2452 24.4493L12.3306 24.2603C12.4373 24.0134 12.608 23.9585 12.9311 24.1048ZM11.8428 24.0134L11.7453 24.2298L10.6722 23.7481L10.7911 23.4829C10.8795 23.2909 11.0228 23.2573 11.2727 23.3671L11.6142 23.5195C11.8916 23.6475 11.9343 23.8122 11.8428 24.0134Z" fill="#F5F5F5"/>
<path d="M15.6776 21.3404L12.4127 19.3833L11.9828 20.0997L14.0924 21.8374L11.55 20.8252L11.1201 21.5386L14.3851 23.4988L14.6533 23.0507L12.3426 21.6666L14.882 22.6696L15.1868 22.1818L13.0529 20.4228L15.3972 21.8282L15.6776 21.3404Z" fill="#F5F5F5"/>
<path d="M16.8485 19.7975L17.2174 19.3189L13.8274 17.4897L13.2939 18.1818L15.937 20.9894L16.2723 20.5535L15.7907 20.0414L16.2388 19.4591L16.8485 19.7975ZM15.4279 19.6633L14.0774 18.258L15.7815 19.2061L15.4279 19.6633Z" fill="#F5F5F5"/>
<path d="M15.8532 15.9807L16.28 15.5234L15.8837 15.1484L14.6338 16.502L15.0331 16.8739L15.4599 16.4197L17.8439 18.6512L18.2554 18.2122L15.8532 15.9807Z" fill="#F5F5F5"/>
<path d="M16.8737 14.2341L16.4316 14.6335L19.0229 17.4259L19.4619 17.0205L16.8737 14.2341Z" fill="#F5F5F5"/>
<path d="M20.7307 14.7865L19.5113 13.2379C19.1303 12.7593 18.6608 12.6861 18.2005 13.0519C17.7402 13.4177 17.7066 13.8964 18.0877 14.3689L19.3071 15.9206C19.6882 16.3992 20.1546 16.4663 20.6179 16.1004C21.0813 15.7346 21.121 15.2621 20.7307 14.7865ZM20.2765 15.6767C20.1271 15.7956 19.9717 15.7895 19.8009 15.5761L18.5145 13.9665C18.3499 13.7531 18.3773 13.5976 18.5145 13.4818C18.6517 13.3659 18.8193 13.369 18.99 13.5793L20.2735 15.1889C20.4655 15.4054 20.4259 15.5487 20.2857 15.6767H20.2765Z" fill="#F5F5F5"/>
<path d="M23.3658 14.1459L21.302 10.9358L20.8569 11.2406L22.0763 13.1582L20.3234 11.5729L19.6924 11.9814L21.7532 15.1854L22.2074 14.8806L20.7319 12.5607L22.8659 14.4751L23.3658 14.1459Z" fill="#F5F5F5"/>
<path d="M50.469 10.9751L50.1642 11.4507L50.7129 11.7982L48.8838 14.6486L49.4081 14.9808L51.2372 12.1274L51.7799 12.4994L52.0847 12.0268L50.469 10.9751Z" fill="#F5F5F5"/>
<path d="M52.8558 12.5764L50.3926 15.6554L51.7095 16.7102L52.0601 16.2712L51.2157 15.6005L51.9382 14.686L52.6119 15.2439L52.9625 14.8018L52.3009 14.2714L52.9869 13.4148L53.8191 14.0824L54.1727 13.6434L52.8558 12.5764Z" fill="#F5F5F5"/>
<path d="M55.629 14.9388C55.2022 14.509 54.7144 14.5425 54.2754 14.9845L52.8274 16.4356C52.3823 16.8837 52.3488 17.3502 52.7817 17.7892C53.2145 18.2281 53.6962 18.1885 54.1352 17.7434L54.5041 17.3776L54.0895 16.9661L53.6932 17.3593C53.492 17.5605 53.3334 17.5453 53.1932 17.405C53.053 17.2648 53.0377 17.1002 53.2389 16.9051L54.7449 15.4022C54.94 15.204 55.1046 15.2162 55.2449 15.3534C55.3851 15.4906 55.3942 15.6582 55.1991 15.8564L54.8943 16.1613L55.3058 16.5758L55.5802 16.3045C56.0283 15.8534 56.0619 15.3747 55.629 14.9388Z" fill="#F5F5F5"/>
<path d="M57.7959 17.4723L56.4759 18.524L56.0369 17.9875L57.3569 16.9358L56.9728 16.4541L53.8877 18.8929L54.2627 19.3746L55.5827 18.3259L56.0217 18.8746L54.7016 19.9264L55.104 20.4263L58.1891 17.9723L57.7959 17.4723Z" fill="#F5F5F5"/>
<path d="M59.6061 20.1208L57.6002 21.3615L59.2677 19.5751L58.8592 18.9014L55.5059 20.9805L55.8107 21.4499L58.2495 19.9501L56.2284 22.1084L56.5667 22.648L59.9201 20.572L59.6061 20.1208Z" fill="#F5F5F5"/>
<path d="M60.8659 22.3853C60.6037 21.8366 60.1373 21.6903 59.5672 21.9616L57.7107 22.8426C57.1436 23.1109 56.9607 23.5651 57.2229 24.1169C57.4851 24.6687 57.9484 24.8089 58.5185 24.5406L60.3629 23.6626C60.9421 23.3913 61.1219 22.9371 60.8659 22.3853ZM60.1403 23.0865L58.2167 24.001C57.9637 24.126 57.8143 24.0559 57.729 23.8791C57.6436 23.7023 57.6863 23.5438 57.9454 23.4218L59.866 22.5073C60.122 22.3884 60.2714 22.4524 60.3537 22.6323C60.436 22.8121 60.3964 22.9645 60.1403 23.0865Z" fill="#F5F5F5"/>
<path d="M61.8321 24.8225L61.6218 24.2402L57.9209 25.5694L58.4727 27.1119L59.0031 26.9229L58.6617 25.9596L61.8321 24.8225Z" fill="#F5F5F5"/>
<path d="M62.7048 27.5324C62.5584 26.941 62.1255 26.7032 61.5158 26.8587L59.5282 27.3586C58.9185 27.511 58.6472 27.9195 58.7905 28.511C58.9337 29.1024 59.3727 29.3341 59.9824 29.1816L61.9731 28.6847C62.5828 28.5293 62.8511 28.1177 62.7048 27.5324ZM61.8603 28.072L59.7934 28.5902C59.5191 28.6603 59.3849 28.5658 59.3392 28.3738C59.2935 28.1817 59.3636 28.0354 59.6441 27.9683L61.714 27.4501C61.9853 27.383 62.1194 27.4775 62.1682 27.6665C62.217 27.8555 62.1316 28.0019 61.8603 28.072Z" fill="#F5F5F5"/>
<path d="M63.2633 30.3668C63.1749 29.7571 62.7755 29.5041 62.1476 29.5956L60.1203 29.9004C59.4953 29.9919 59.1844 30.3547 59.2698 30.9583C59.3551 31.5619 59.7575 31.821 60.3794 31.7295L61.6171 31.5527L61.4982 30.693L60.9403 30.7723L60.98 31.0497L60.2605 31.1564C59.9831 31.196 59.8612 31.0863 59.8368 30.8912C59.8124 30.6961 59.8916 30.5589 60.1691 30.5223L62.2756 30.2175C62.553 30.1778 62.678 30.2845 62.7054 30.4827C62.7329 30.6808 62.6445 30.815 62.367 30.8546L61.9494 30.9125L62.0317 31.4948L62.4097 31.4399C63.0377 31.3332 63.3487 30.9705 63.2633 30.3668Z" fill="#F5F5F5"/>
<path d="M63.5 33.6498L61.6709 33.2535L63.4452 32.7017L63.4147 32.0554L60.8173 32.9547L59.5156 33.0096L59.54 33.6193L60.8448 33.5614L63.5122 34.2229L63.5 33.6498Z" fill="#F5F5F5"/>
<path d="M59.5201 36.1228L59.4165 37.0922C59.3861 37.2166 59.3847 37.3464 59.4124 37.4714C59.4401 37.5964 59.4962 37.7134 59.5764 37.8133C59.6565 37.9132 59.7586 37.9933 59.8746 38.0475C59.9907 38.1017 60.1176 38.1284 60.2457 38.1257L60.5505 38.1592C60.9651 38.2019 61.273 38.1074 61.4407 37.7903C61.5382 38.0952 61.7852 38.2293 62.1876 38.272H62.3248C62.9345 38.336 63.2576 38.0921 63.3247 37.455L63.4253 36.5405L59.5201 36.1228ZM61.1907 37.202C61.1572 37.4794 61.0352 37.5861 60.6725 37.5495L60.331 37.5129C60.0262 37.4794 59.9561 37.3575 59.9774 37.1502L60.014 36.7996L61.2181 36.9307L61.1907 37.202ZM62.782 37.394C62.7576 37.6105 62.6235 37.6989 62.343 37.6654L62.1266 37.641C61.8217 37.6074 61.7272 37.4581 61.7516 37.2264L61.7791 36.9886L62.8125 37.0983L62.782 37.394Z" fill="#F5F5F5"/>
<path d="M62.1518 39.239L60.1489 38.8091C59.5392 38.6781 59.1094 38.928 58.9813 39.5255C58.8533 40.123 59.1368 40.5194 59.7557 40.6504L61.7616 41.0803C62.3713 41.2114 62.7981 40.9614 62.9261 40.3669C63.0542 39.7725 62.7706 39.3731 62.1518 39.239ZM62.3743 40.2511C62.3347 40.4431 62.2036 40.5407 61.9293 40.4828L59.8441 40.0346C59.5697 39.9767 59.4935 39.8334 59.5392 39.6414C59.5849 39.4493 59.7099 39.3365 59.9843 39.4066L62.0695 39.8548C62.3378 39.9127 62.417 40.059 62.3743 40.2419V40.2511Z" fill="#F5F5F5"/>
<path d="M58.7051 40.9456L58.5252 41.4882L59.1715 41.793L58.9368 42.5155L58.2204 42.3967L58.0283 42.9911L61.9731 43.6191L62.2536 42.7564L58.7051 40.9456ZM59.4703 42.6192L59.6532 42.0522L61.4579 42.9667L59.4703 42.6192Z" fill="#F5F5F5"/>
<path d="M57.8191 43.5176L57.5661 44.0816L59.0263 44.74L58.941 44.9351C58.8251 45.1943 58.6361 45.24 58.316 45.0998L57.749 44.8467C57.6064 44.7656 57.4487 44.7147 57.2856 44.6974L57.0234 45.2705C57.187 45.2821 57.3461 45.3289 57.4899 45.4077L58.0447 45.6576C58.4197 45.8284 58.7337 45.8588 58.9806 45.6302C58.9806 45.935 59.1726 46.1606 59.5385 46.3253L59.822 46.4563C60.3768 46.7063 60.7609 46.5783 61.0414 45.993L61.4285 45.1394L57.8191 43.5176ZM60.5231 45.746C60.4317 45.9442 60.2793 45.9808 60.0232 45.8649L59.6665 45.7064C59.3799 45.5753 59.3464 45.4016 59.4409 45.1943L59.5385 44.9717L60.6451 45.4747L60.5231 45.746Z" fill="#F5F5F5"/>
<path d="M56.7448 45.8025L56.2479 46.6439C55.943 47.1774 56.0741 47.6133 56.6167 47.9365L58.333 48.9486C58.8787 49.2686 59.3269 49.1802 59.6439 48.6437L60.1408 47.8023L56.7448 45.8025ZM59.1653 48.3571C59.0616 48.5248 58.9153 48.5736 58.6714 48.4334L56.9063 47.3908C56.6655 47.2475 56.6381 47.0859 56.7356 46.9243L56.9155 46.6195L59.3543 48.0523L59.1653 48.3571Z" fill="#F5F5F5"/>
<path d="M25.2079 47.8772V52.1299C24.6124 52.0222 24.0454 51.9084 23.5068 51.7884V48.3985C24.0037 48.2247 24.5738 48.0418 25.2079 47.8772Z" fill="#F5F5F5"/>
<path d="M27.6267 47.3867V52.5174L26.9744 52.4351C26.4592 52.3588 25.9623 52.2765 25.4775 52.1881V47.8074C25.947 47.6916 26.447 47.5818 26.9744 47.5026C27.1878 47.4507 27.4042 47.4203 27.6267 47.3867Z" fill="#F5F5F5"/>
<path d="M33.4829 47.5782V53.0442L32.5684 53.0045V47.3953C32.8702 47.4471 33.175 47.5081 33.4829 47.5782Z" fill="#F5F5F5"/>
<path d="M32.2821 47.3631V52.9907C31.587 52.945 30.895 52.8962 30.2061 52.8261V47.2107C30.9008 47.2118 31.5946 47.2628 32.2821 47.3631Z" fill="#F5F5F5"/>
<path d="M35.668 48.2884V53.0928C35.0339 53.0928 34.3968 53.0928 33.7627 53.0563V47.6482C34.414 47.8101 35.0511 48.0242 35.668 48.2884Z" fill="#F5F5F5"/>
<path d="M14.3042 34.4491C14.3053 37.3628 14.9031 40.2455 16.0607 42.9194C17.2184 45.5933 18.9114 48.0018 21.0353 49.9965L21.1969 50.1489C21.2487 50.2008 21.3036 50.2465 21.3585 50.2953L21.52 49.2191C22.0789 48.947 22.6518 48.7049 23.2364 48.4936V51.7189L23.0565 51.6793H23.0413L22.1267 51.469C21.9285 51.4171 21.7304 51.3714 21.5383 51.3196C21.2121 51.2373 20.8981 51.1519 20.5963 51.0726C17.9848 48.7052 15.9669 45.7565 14.7058 42.4649C13.4447 39.1732 12.9758 35.6311 13.337 32.1247C13.6982 28.6184 14.8793 25.2462 16.7849 22.2807C18.6905 19.3153 21.2671 16.8398 24.3064 15.0544C24.2009 15.5062 24.1467 15.9684 24.1448 16.4324C21.127 18.3711 18.6444 21.0368 16.925 24.1848C15.2056 27.3327 14.3044 30.8622 14.3042 34.4491Z" fill="#F5F5F5"/>
<path d="M39.9376 18.1486V18.1974C39.9376 18.0785 39.9224 17.9535 39.9102 17.8315C39.9132 17.9382 39.9193 18.0419 39.9376 18.1486Z" fill="#F5F5F5"/>
<path d="M47.5563 40.4971L46.0961 40.6221L55.3666 40.3325C55.1319 40.9788 54.9307 41.6921 54.5801 42.4664L50.617 42.8475L46.4711 43.2469L54.3149 42.9725C54.0771 43.4633 53.7052 44.0456 53.4247 44.5638L46.8796 45.204L53.1412 45.076C52.6997 45.824 52.2194 46.5485 51.7023 47.2465L48.0898 47.6581L47.4801 47.7221L46.5656 47.8288L51.3944 47.6489H51.4188C49.9098 49.478 47.7392 51.3864 45.4407 52.1211L45.3523 52.1455C45.3232 52.1583 45.2924 52.1666 45.2608 52.1699C45.2539 52.1722 45.2464 52.1722 45.2395 52.1699L45.084 52.2156C45.0535 52.2156 45.02 52.2339 44.9895 52.243C44.9041 52.2674 44.8188 52.2888 44.7304 52.3071L44.5932 52.3406H44.5627L44.1054 52.4473H44.0627L43.6847 52.4991C43.511 52.5265 43.3372 52.554 43.1634 52.5753L42.7976 52.6211L41.883 52.7278H41.8312L41.5264 52.7643V35.7109H45.1175L45.145 38.5217H45.2395H45.3309L56.1836 37.8022C56.1836 37.8022 55.9855 38.5826 55.5587 39.7868L47.5563 40.4971Z" fill="#F5F5F5"/>
<path d="M48.404 51.636C48.4585 51.6257 48.5125 51.6125 48.5656 51.5964C48.8125 51.5385 49.0625 51.4775 49.3064 51.4105C49.0107 51.4928 48.715 51.5659 48.4131 51.636H48.404ZM43.9806 52.4866H44.0416H44.0843H43.9806Z" fill="#F5F5F5"/>
<path d="M16.4425 63.5141L16.3663 63.6269C16.3023 63.7123 16.1072 64.0293 16.0249 64.1543C16.0254 64.1635 16.0254 64.1726 16.0249 64.1817C15.97 64.258 15.9182 64.3372 15.8663 64.4165C15.8145 64.4957 15.7596 64.575 15.7078 64.6604C15.656 64.7457 15.6529 64.7488 15.6194 64.7945L15.4792 65.0231C15.4395 65.0902 15.3999 65.1573 15.3542 65.2243V65.2518L15.1835 65.5383C15.1758 65.5475 15.1696 65.5578 15.1652 65.5688C15.0981 65.6725 15.0371 65.7792 14.9792 65.8737L14.8207 66.145C14.7689 66.2334 14.7201 66.3157 14.6744 66.4011C14.6286 66.4864 14.6103 66.5139 14.5799 66.5626C14.5494 66.6114 14.525 66.6602 14.4975 66.709L14.2689 67.0687L14.1653 67.2577L14.15 67.2821C14.1264 67.3205 14.105 67.3602 14.086 67.401V67.4193C14.086 67.4498 14.0525 67.4772 14.0372 67.5046C14.022 67.5321 13.9732 67.6266 13.9519 67.6662L13.9153 67.7302C11.636 67.2725 9.48308 66.3261 7.60486 64.9561C6.82749 63.8525 6.89151 63.1849 7.44634 62.8069C7.54145 62.7424 7.64375 62.6892 7.75119 62.6483L7.928 62.5813C8.05299 62.5477 8.19017 62.5142 8.3304 62.4837C9.52542 62.2642 11.3454 62.4624 12.9641 62.7428C13.2477 62.7886 13.522 62.8404 13.7903 62.8953L14.3055 62.9959L14.967 63.1422C15.8541 63.3526 16.4425 63.5141 16.4425 63.5141Z" fill="#F5F5F5"/>
<path d="M63.7152 64.6842C63.7152 64.6842 59.9929 67.6778 57.5267 67.6778L56.8804 66.6748L55.789 64.9524L55.3592 64.3244L54.9903 63.7483L54.9629 63.7056V63.6842C54.9629 63.6842 67.5868 60.1388 63.7152 64.6842Z" fill="#F5F5F5"/>
<path d="M23.0528 51.6831H23.0375H23.0589C23.0589 51.6831 23.0558 51.6862 23.0528 51.6831ZM55.7877 64.935C55.6292 64.685 55.4829 64.4686 55.3701 64.2948C55.2146 64.057 55.0957 63.8833 55.0226 63.7766L54.9829 63.7217L55.3518 64.2979L55.7664 64.9411L56.8578 66.6422C56.4462 65.9654 56.0926 65.3953 55.7877 64.935ZM14.6328 66.4074C14.5047 66.63 14.3798 66.8556 14.2609 67.0751C14.1816 67.2244 14.1054 67.3799 14.0322 67.5171C14.0322 67.4897 14.0658 67.4622 14.081 67.4317V67.4134C14.1 67.3726 14.1214 67.3329 14.145 67.2946L14.1603 67.2702L14.2639 67.0812L14.4651 66.7214C14.4926 66.6727 14.52 66.6269 14.5474 66.5751C14.5749 66.5233 14.6084 66.4715 14.6419 66.4135C14.6755 66.3556 14.7364 66.2459 14.7883 66.1575L14.9468 65.8861C15.0047 65.7855 15.0657 65.6788 15.1327 65.5813C15.1372 65.5702 15.1434 65.5599 15.151 65.5508L15.3217 65.2642V65.2368C15.1053 65.5874 14.8584 65.9959 14.6328 66.4074Z" fill="#F5F5F5"/>
<path d="M14.6348 50.892C14.8131 50.8906 14.9914 50.9024 15.168 50.9281H15.2998C15.6211 50.9772 15.9359 51.062 16.2383 51.181C18.5741 52.05 20.9731 52.7388 23.4141 53.2416C24.4323 53.455 25.549 53.6629 26.7227 53.8519C29.7142 54.3133 32.7368 54.5441 35.7637 54.5433C38.7547 54.5461 41.7417 54.3144 44.6963 53.849C45.8029 53.6752 46.9311 53.4585 48.0713 53.2054C50.2187 52.7315 52.3355 52.127 54.4092 51.3949C55.2405 51.0949 56.1163 50.9367 57 50.9281H57.4668C58.1876 50.9843 58.879 51.2394 59.4639 51.6644C60.0486 52.0895 60.5043 52.6681 60.7803 53.3363L62.1611 56.641L66.1758 56.3968L71.3955 68.6644C70.2451 67.9467 68.9125 67.5733 67.5566 67.5882C66.5354 67.5922 65.5236 67.7886 64.5752 68.1673C64.5504 68.1834 62.3602 69.6028 60.3535 69.6029C59.8412 69.6304 59.3314 69.5153 58.8809 69.2699C58.4303 69.0244 58.0564 68.6587 57.8018 68.2132C57.4695 67.6493 57.1651 67.1369 56.8877 66.6888L57.5273 67.6771C59.9871 67.6771 63.6964 64.6957 63.7158 64.68C67.5874 60.1347 54.9512 63.6644 54.9512 63.6644C54.9198 63.6758 47.1723 66.4789 35.6602 66.4789C29.9778 66.4788 22.4148 65.5638 16.4551 63.5091C16.4551 63.5091 15.8449 63.3479 14.9639 63.1498L14.3027 63.0033L13.7871 62.9027C13.5189 62.8509 13.2444 62.7961 12.9609 62.7504C11.3422 62.4699 9.52211 62.2721 8.32715 62.4916C8.18704 62.522 8.04968 62.5547 7.9248 62.5882L7.74805 62.6556C7.64073 62.6964 7.53838 62.7494 7.44336 62.8138C6.88859 63.1918 6.83359 63.8599 7.60156 64.9632C9.47973 66.3332 11.6329 67.2799 13.9121 67.7377C13.8512 67.8657 13.7931 67.9937 13.7383 68.1156C13.493 68.679 13.0877 69.1581 12.5723 69.4925C12.0569 69.8269 11.4542 70.002 10.8398 69.9964C10.0351 69.9964 9.02862 69.7377 7.79102 69.0336C6.56995 68.1546 5.10412 67.6803 3.59961 67.6771C2.33392 67.6827 1.092 68.0241 0.00195312 68.6673L5.16602 56.3451L9.32422 56.5287L10.6934 53.4798C11.0321 52.7152 11.5841 52.0639 12.2832 51.6048C12.9822 51.146 13.7987 50.8988 14.6348 50.892ZM40.8535 56.7084C38.7069 56.9447 36.545 57.0139 34.3877 56.9134C34.3664 57.5227 34.3571 57.8276 34.3389 58.4369C35.2961 58.4613 35.7752 58.4613 36.7324 58.4613L36.8086 64.098C37.6437 64.0858 38.0614 64.0712 38.8965 64.0316C38.7837 61.7757 38.729 60.6439 38.6162 58.388C39.5673 58.3393 40.0338 58.3066 40.9971 58.2152C40.9391 57.6238 40.9114 57.3181 40.8535 56.7084ZM30.5039 63.848C31.3239 63.9303 31.7479 63.9604 32.583 64.0091C32.7537 61.1498 32.8389 59.7201 33.0127 56.8607C32.2814 56.818 31.9095 56.7903 31.1934 56.7171C30.9159 59.5797 30.7783 60.9946 30.5039 63.848ZM49.1006 57.1927C48.8596 56.2297 47.9848 55.5869 46.2598 55.9252C44.6503 56.2422 43.8057 56.3766 42.1963 56.5716C42.5438 59.4155 42.7199 60.8392 43.0674 63.68C44.8598 63.4636 45.7899 63.3178 47.5791 62.9642C49.6399 62.5618 50.4639 61.4729 50.1377 60.1986C49.9212 59.3575 49.1801 58.983 48.415 58.9281C48.7027 58.7531 48.925 58.4882 49.0488 58.1752C49.1725 57.8621 49.1908 57.517 49.1006 57.1927ZM23.873 55.3334C23.1689 58.1071 22.8035 59.4943 22.1055 62.265C22.9223 62.4753 23.3247 62.5763 24.1172 62.7591C24.3427 61.7868 24.4341 61.299 24.6475 60.3207C25.3577 60.4853 25.7053 60.5613 26.4033 60.7015C28.1103 61.046 29.2691 60.2566 29.4521 58.8119C29.6351 57.3669 28.6987 56.4091 27.2598 56.1195C25.9308 55.8513 25.2753 55.6931 23.873 55.3334ZM46.7744 60.0736C47.5 59.9364 47.8905 60.1228 47.9941 60.6136C48.1282 61.2293 47.7169 61.5099 47.0312 61.641C46.2051 61.7964 45.8053 61.8663 44.9854 61.9974C44.8848 61.3696 44.8355 61.0557 44.7197 60.431C45.5549 60.303 45.9576 60.229 46.7744 60.0736ZM25.3184 57.1898C25.9249 57.33 26.2146 57.397 26.8242 57.5189C27.5252 57.6622 27.7503 58.04 27.665 58.555C27.5644 59.18 27.1317 59.3509 26.5098 59.2259C25.8881 59.101 25.5771 59.0304 24.9492 58.8841C25.0955 58.2077 25.1721 57.8694 25.3184 57.1898ZM46.1377 57.388C46.6924 57.2723 47.086 57.4189 47.1836 57.8822C47.2628 58.2479 47.1282 58.5798 46.3877 58.7201C45.6439 58.8634 45.2653 58.9275 44.5215 59.0433L44.3086 57.7084C45.0402 57.5925 45.4091 57.5283 46.1377 57.388Z" fill="#F5F5F5"/>
<path d="M8.33024 62.4834C9.52525 62.2639 11.3453 62.4627 12.964 62.7431C13.2475 62.7888 13.5219 62.8406 13.7902 62.8955L14.3058 62.996L14.967 63.1425C15.854 63.3529 16.4425 63.5146 16.4425 63.5146L16.3664 63.6269C16.3024 63.7123 16.1069 64.0293 16.0246 64.1543C16.0251 64.1633 16.0251 64.1725 16.0246 64.1816C15.9697 64.2578 15.9182 64.3346 15.8664 64.4169C15.8147 64.499 15.7599 64.575 15.7082 64.6601C15.6563 64.7455 15.6528 64.7492 15.6193 64.7949L15.4787 65.0234C15.436 65.0995 15.3876 65.1758 15.342 65.2519L15.1711 65.538C15.1634 65.5472 15.1569 65.5582 15.1525 65.5693C15.0855 65.6728 15.0248 65.7796 14.967 65.874L14.8088 66.1455C14.757 66.2338 14.708 66.316 14.6623 66.4013C14.6166 66.4865 14.598 66.5138 14.5675 66.5625C14.5371 66.6112 14.5129 66.6602 14.4855 66.7089L14.2687 67.0683L14.1652 67.2578L14.1496 67.2822C14.126 67.3205 14.1051 67.3606 14.0861 67.4013V67.4189C14.0861 67.4494 14.0525 67.4774 14.0373 67.5048C14.022 67.5323 13.9727 67.6263 13.9513 67.666L13.9152 67.7304C11.6359 67.2727 9.48287 66.326 7.60465 64.956C6.82737 63.8525 6.89164 63.1846 7.44645 62.8066C7.54147 62.7422 7.64382 62.6892 7.75113 62.6484L7.92789 62.581C8.05285 62.5475 8.19004 62.5138 8.33024 62.4834ZM54.963 63.6845C54.963 63.6845 67.5875 60.1392 63.716 64.6845C63.716 64.6845 59.9938 67.6773 57.5275 67.6777L56.881 66.6748L55.7892 64.9521L55.3625 64.3242L55.0304 63.8037L54.9904 63.748L54.963 63.706V63.6845Z" fill="#0F0F0F"/>
</g>
<defs>
<clipPath id="clip0_15226_7202">
<rect width="71.3932" height="70" fill="white"/>
</clipPath>
</defs>
</svg>
