<svg width="84" height="70" viewBox="0 0 84 70" fill="none" xmlns="http://www.w3.org/2000/svg">
<g clip-path="url(#clip0_15226_7193)">
<path fill-rule="evenodd" clip-rule="evenodd" d="M41.9591 0C58.1952 0 71.495 13.3008 71.495 29.5366C71.495 45.7723 58.1941 59.0738 41.9582 59.0738C25.6776 59.0738 12.377 45.7729 12.377 29.5366C12.377 13.3002 25.6785 0 41.9591 0ZM14.4678 28.4692C18.4713 28.7806 22.1187 27.0456 26.4335 25.3998C29.7253 24.3768 32.6175 24.9103 35.7307 26.156C39.3338 28.3356 42.8042 28.6916 46.451 26.156C49.9207 24.3321 53.6126 24.5992 57.2603 26.156C61.0861 28.0242 65.0893 28.8249 69.4044 28.6027C68.9598 13.8787 56.771 1.95759 41.9582 1.95759C27.1455 1.95759 15.0022 13.834 14.4686 28.4692H14.4678ZM14.5567 33.051C18.4713 33.3623 22.1187 31.6274 26.4335 29.9816C29.7253 28.9585 32.6175 29.4923 35.7307 30.7378C39.3338 32.9173 42.8042 33.2734 46.451 30.7378C49.9207 28.9138 53.6126 29.1809 57.2603 30.7378C61.0861 32.606 65.0893 33.4066 69.2712 33.2287C69.3146 32.4727 69.4491 31.7163 69.4044 30.8267C65.0902 31.0498 61.0869 30.2036 57.2611 28.3809C53.6135 26.7794 49.9216 26.557 46.4519 28.3809C42.8047 30.9163 39.3349 30.5605 35.7316 28.3809C32.6177 27.1352 29.7262 26.6017 26.4344 27.6245C22.1196 29.2705 18.4713 31.0053 14.4686 30.8274C14.4239 31.628 14.6021 32.3397 14.5576 33.0516L14.5567 33.051ZM15.6688 37.6768C19.1838 37.6768 22.5637 35.9869 26.4335 34.5633C29.7253 33.5403 32.6175 34.074 35.7307 35.3195C39.3338 37.4995 42.8042 37.8547 46.451 35.3195C49.9207 33.4956 53.6126 33.7627 57.2603 35.3195C60.7302 37.0102 64.5113 37.8547 68.2479 37.7215C68.3811 36.9208 68.6484 36.2089 68.8259 35.3642C64.778 35.4976 60.9081 34.6966 57.2609 32.962C53.6133 31.3605 49.9214 31.1381 46.4516 32.962C42.8044 35.4976 39.3347 35.1416 35.7313 32.962C32.6175 31.7163 29.726 31.1828 26.4342 32.2056C22.3864 33.7627 18.8722 35.3195 15.0467 35.275C15.1801 36.0757 15.4915 36.8321 15.6694 37.6768H15.6688ZM17.5369 42.0815C20.3395 41.6807 23.2307 40.3456 26.4331 39.1448C29.7249 38.1222 32.617 38.6556 35.7303 39.9015C39.3334 42.0815 42.8038 42.4369 46.4506 39.9015C49.9203 38.0788 53.6122 38.3001 57.2598 39.9015C60.1511 41.3248 63.1762 42.1255 66.2901 42.2587C66.5568 41.5028 67.002 40.7468 67.4021 39.9462C63.9322 39.9462 60.5071 39.0999 57.2598 37.5438C53.6122 35.9424 49.9203 35.7198 46.4506 37.5438C42.8034 40.0349 39.3336 39.7235 35.7303 37.5438C32.6164 36.2983 29.7249 35.7645 26.4331 36.7878C22.7857 38.1222 19.6718 39.6788 16.4245 39.857C16.8248 40.5689 17.2707 41.3695 17.5365 42.0815H17.5369ZM21.4962 47.7752C26.6562 53.4243 33.9959 57.1166 41.9573 57.1166C49.6532 57.1166 56.5922 53.7354 61.7967 48.4424C60.3286 48.0419 58.8167 47.4192 57.2594 46.7066C53.6118 45.1053 49.9198 44.8827 46.4501 46.7066C42.8029 49.1977 39.3332 48.8864 35.7298 46.7066C32.6159 45.4613 29.7245 44.9274 26.4327 45.9506C24.6968 46.5731 23.0521 47.2853 21.4953 47.7746L21.4962 47.7752ZM20.0281 45.996C22.0744 45.5067 24.165 44.5719 26.4335 43.7268C29.7253 42.7042 32.6175 43.2375 35.7307 44.4834C39.3338 46.6632 42.8042 46.9746 46.451 44.4834C49.9207 42.6595 53.6126 42.8821 57.2603 44.4834C59.3509 45.462 61.4421 46.2179 63.5327 46.5293C63.9326 45.7731 64.4657 45.0612 65.0453 44.394C62.4198 44.1721 59.8402 43.3267 57.2603 42.1255C53.6126 40.5242 49.9207 40.3016 46.451 42.1255C42.8038 44.6166 39.3341 44.3053 35.7307 42.1255C32.6168 40.8803 29.7253 40.3463 26.4335 41.3695C23.6313 42.4369 21.0511 43.5934 18.649 44.0818C19.1838 44.6611 19.6284 45.3283 20.029 45.9958L20.0281 45.996Z" fill="#F5F5F5"/>
<path fill-rule="evenodd" clip-rule="evenodd" d="M34.6641 11.8782C35.3311 14.8587 37.7779 17.0382 40.848 17.0382C44.363 17.0382 47.1647 14.2359 47.1647 10.7219C47.1647 7.65233 45.0294 5.11671 42.049 4.49463C45.9194 4.49463 49.2106 7.74173 49.2106 11.7899C49.2106 15.7934 45.9194 19.085 41.8708 19.085C37.912 19.085 34.6202 15.7934 34.6649 11.8787L34.6641 11.8782ZM35.1087 10.1435L37.7775 9.83233L38.8893 12.2788L39.4231 9.65332L42.1377 9.29834L39.8241 7.96457L40.4019 5.33911L38.4002 7.11835L36.0427 5.7837L37.1548 8.27463L35.1087 10.1435Z" fill="#F5F5F5"/>
<path d="M78.7468 36.4774L78.9248 35.3207M78.6575 34.3421L78.7468 32.8296M77.7236 31.762L77.5901 30.2497M75.455 29.8047L75.2769 28.4255M74.2536 31.4062L74.1651 30.2495M72.919 34.253L72.6078 33.052M72.7417 36.3878L72.3412 35.2762M81.6379 49.6442L82.6167 48.6654M82.6601 47.7324L83.5063 46.3977M83.1057 45.0191L83.7283 43.7287M82.127 42.1712L82.6607 40.8366M80.259 43.0163L80.8815 41.8598M77.7231 44.8403L78.435 43.283M76.4777 46.5748L76.7459 45.2415M69.9841 65.2591L71.0966 64.9918M71.9413 64.325L73.3653 63.8357M73.8987 62.4119L75.2331 61.7892M74.8772 59.5654L76.0337 58.8979M72.8758 59.0761L73.9431 58.6753M69.7157 58.9856L70.6943 58.1849M67.7139 59.6528L68.559 58.8524" stroke="#F5F5F5" stroke-width="0.222404" stroke-miterlimit="2.61"/>
<path d="M11.7122 60.1865C11.0007 59.6525 10.2434 59.564 9.3104 59.7859C9.44363 60.5866 10.1553 61.2985 11.2676 61.8325M29.1497 65.6576C24.6569 66.8143 19.3639 64.2345 12.7799 61.5652M19.0962 61.6546C18.4288 60.5866 17.5838 60.0086 16.2935 60.0086C16.4271 61.1206 16.9609 62.4997 17.8505 63.567C16.4271 63.6117 15.0927 64.4132 14.292 65.213C15.1817 65.9249 16.1602 66.146 17.317 65.8802M16.4707 60.7205C15.9814 59.9194 15.2697 59.386 14.2912 59.2079C13.9351 60.3199 14.4691 61.6099 15.2697 62.4997C13.9351 62.7219 12.7786 63.3459 12.2448 64.3236C13.0455 64.9464 13.9351 65.0349 14.8703 64.7237M14.0694 59.7859C13.3577 58.9853 12.6015 58.8963 11.4895 59.2079C11.4895 60.0086 12.0235 60.898 12.824 61.5652M12.5571 63.7897C11.534 63.8784 10.8212 63.3891 10.1106 62.4997C10.8221 61.8325 11.7117 61.5652 12.824 61.6991M8.86538 32.5179C9.08778 31.6717 8.86538 30.9611 8.33161 30.1157C7.6197 30.605 7.21937 31.5836 7.21937 32.7846M12.6909 53.5582C7.70866 50.4003 8.19817 43.1048 8.06472 34.03M10.4222 39.9017C11.1339 38.834 11.3118 37.8999 10.8672 36.6987C9.88865 37.2774 8.82111 38.3004 8.19838 39.4571C7.57457 38.211 6.37445 37.278 5.26222 36.877C4.90659 37.945 5.17325 38.8789 5.84047 39.9022M10.2885 37.0996C10.8221 36.3437 11.0447 35.543 10.8221 34.4742C9.6656 34.6074 8.68702 35.6307 8.15325 36.7427C7.44156 35.586 6.41742 34.7411 5.30648 34.6074C5.08386 35.6307 5.30648 36.4313 5.92921 37.2329M10.2438 34.564C10.6442 33.541 10.4218 32.8282 9.7103 31.8952C8.95391 32.2508 8.33117 33.0517 8.06429 34.0747M5.88516 34.6525C5.39588 33.8063 5.61806 32.9167 6.19653 32.0271C7.04145 32.294 7.6644 33.0504 7.97576 34.1177M3.52725 44.3515C3.2161 43.4619 2.72659 42.9277 1.83698 42.5276C1.43665 43.2836 1.61479 44.3068 2.19304 45.3742M9.3538 55.3821L3.52725 46.0407M8.55315 49.955C8.64211 48.6651 8.28626 47.7312 7.2632 46.9306C6.68495 47.9091 6.32889 49.3772 6.37359 50.7116C5.21708 49.955 3.66004 49.6884 2.50354 49.911C2.8149 50.9783 3.48212 51.7349 4.54965 52.2683M6.99632 47.6425C7.03971 46.6639 6.86287 45.8185 6.1067 45.0619C5.21708 45.7294 4.86102 47.1085 4.94998 48.3537C3.749 47.6865 2.45884 47.4641 1.43491 47.9091C1.74628 48.9324 2.36923 49.5104 3.30332 49.8218M5.66081 45.4171C5.52736 44.3498 4.94911 43.8158 3.92627 43.3712C3.43698 44.0384 3.3478 45.0611 3.57021 46.0835M1.97042 47.6865C1.1255 47.1532 0.858398 46.3078 0.858398 45.196C1.79271 45.0619 2.72659 45.418 3.48385 46.1746M27.9941 62.1877C23.0565 60.9418 17.4962 55.2927 13.6259 55.9604M33.1541 63.0773C20.2983 58.2289 15.7612 47.7308 7.70953 57.0277C16.6057 55.7822 24.124 64.6346 32.1755 63.7892M72.1203 60.1874C72.8323 59.6534 73.5882 59.5648 74.5227 59.7868C74.3889 60.5875 73.6765 61.2994 72.5656 61.8334M54.6832 65.6585C59.1747 66.8152 64.469 64.2353 71.053 61.566M64.7354 61.6561C65.4029 60.5881 66.248 60.0101 67.538 60.0101C67.4047 61.1221 66.8707 62.5012 65.9813 63.5685C67.4047 63.6132 68.7394 64.4148 69.5398 65.2146C68.6502 65.9265 67.6712 66.1476 66.5151 65.8818M67.3598 60.722C67.8938 59.9209 68.561 59.3876 69.5398 59.2094C69.8957 60.3214 69.3617 61.6114 68.561 62.5012C69.8957 62.7234 71.0524 63.3474 71.5861 64.3252C70.7851 64.9479 69.8957 65.0364 68.9607 64.7253M69.7613 59.7875C70.4726 58.9868 71.2292 58.8978 72.3412 59.2094C72.3412 60.0101 71.8072 60.8995 71.0066 61.5667M71.2733 63.7912C72.2965 63.8799 73.0091 63.3906 73.7204 62.5012C73.0084 61.834 72.1186 61.5667 71.0066 61.7006M74.9684 32.5179C74.7458 31.6717 74.9684 30.9611 75.5024 30.1157C76.2139 30.605 76.6144 31.5836 76.6144 32.7846M71.1426 53.5578C76.1251 50.3998 75.6358 43.1043 75.7691 34.0296M73.4114 39.9013C72.6999 38.8335 72.5218 37.8994 72.9666 36.6982C73.9451 37.2769 75.0131 38.3 75.6354 39.4567C76.2573 38.211 77.4587 37.278 78.5703 36.877C78.9263 37.945 78.659 38.8789 77.9918 39.9022M73.5437 37.0996C73.0097 36.3437 72.7871 35.543 73.0097 34.4742C74.1665 34.6074 75.145 35.6307 75.6786 36.7427C76.3901 35.586 77.4133 34.7411 78.5254 34.6074C78.748 35.6307 78.5254 36.4313 77.9026 37.2329M73.5876 34.564C73.1875 33.541 73.4096 32.8282 74.1216 31.8952C74.8775 32.2508 75.5007 33.0517 75.7673 34.0747M77.948 34.6525C78.4373 33.8063 78.2147 32.9167 77.6366 32.0271C76.7904 32.294 76.1688 33.0504 75.8574 34.1177M80.3061 44.3515C80.6173 43.4619 81.1513 42.9277 81.9966 42.5276C82.3965 43.2836 82.2192 44.3068 81.6405 45.3742M74.478 55.3821L80.3061 46.0407M75.2796 49.955C75.1908 48.6651 75.5462 47.7312 76.5695 46.9306C77.1482 47.9091 77.5036 49.3772 77.4591 50.7116C78.6156 49.955 80.1714 49.6884 81.329 49.911C81.0176 50.9783 80.3502 51.7349 79.2831 52.2683M76.8344 47.6425C76.7911 46.6639 76.9683 45.8185 77.7241 45.0619C78.6137 45.7294 78.9693 47.1085 78.8806 48.3537C80.0818 47.6865 81.3719 47.4641 82.3943 47.9091C82.0832 48.9324 81.4613 49.5104 80.5717 49.8218M78.1691 45.4171C78.303 44.3498 78.881 43.8158 79.9049 43.3712C80.3942 44.0384 80.483 45.0611 80.261 46.0835M81.8623 47.6846C82.7074 47.1512 82.9741 46.3059 82.9741 45.1941C82.0411 45.06 81.1502 45.416 80.3486 46.1726M55.8386 62.1857C60.7764 60.9398 66.3368 55.2908 70.2066 55.9584M50.6784 63.0754C63.5345 58.2269 68.0715 47.7288 76.1232 57.0257C67.227 55.7803 59.7087 64.6326 51.657 63.7873M46.0526 63.7426C44.4507 64.0539 43.1607 64.4987 41.96 64.944C40.9369 64.41 39.2477 64.0094 37.7788 63.7426M47.4313 64.4987C46.0526 64.7661 44.6288 65.166 43.4281 65.6112C45.2073 66.4118 46.7198 67.4792 48.0985 68.7691L47.0312 69.6153C45.5187 68.1475 43.9614 67.0354 41.96 66.2348C40.0473 67.1244 38.2234 68.2366 36.8002 69.6153L35.7324 68.7691C37.0224 67.5239 38.4013 66.4559 40.0916 65.6112C39.0687 65.166 37.7341 64.7661 36.3994 64.4987M21.6327 65.0802C21.9887 63.4345 21.2323 61.9666 19.1862 60.7211C18.8749 61.7884 19.3642 63.2118 20.2538 64.591C18.6522 64.947 17.318 65.6583 16.873 66.6369C19.1862 67.0821 20.7431 66.5036 21.6327 65.0802ZM8.24265 43.6383C9.93292 43.2378 10.9115 41.9923 11.2676 39.635C10.2443 39.7238 9.13226 40.7911 8.15369 42.1258C7.21937 40.7911 6.01861 39.8125 5.03981 39.7685C5.44014 42.0817 6.59686 43.2823 8.24265 43.6383ZM8.50975 54.2256C9.75499 53.0689 9.97762 51.4678 9.13226 49.2438C8.24265 49.911 7.79784 51.3344 7.6644 52.9802C6.19653 52.3129 4.68397 52.0471 3.74987 52.5356C5.30691 54.3148 6.90801 54.8041 8.50975 54.2256ZM24.9683 66.5485C30.751 67.705 34.3097 58.2302 41.9608 62.5446C36.2226 62.0553 30.9289 72.1976 24.9683 66.5485ZM62.2003 65.0811C61.8444 63.4353 62.601 61.9675 64.6469 60.722C65.0028 61.7893 64.4688 63.2127 63.5796 64.5918C65.1809 64.9479 66.5153 65.6591 66.9599 66.6377C64.6469 67.083 63.0903 66.5045 62.2003 65.0811ZM75.5912 43.6379C73.9007 43.2373 72.9223 41.9919 72.5667 39.6346C73.5893 39.7234 74.7018 40.7907 75.6803 42.1253C76.6133 40.7907 77.815 39.8121 78.7938 39.7681C78.3937 42.0813 77.2372 43.2818 75.5912 43.6379ZM75.3243 54.2256C74.0784 53.0689 73.8564 51.4678 74.7015 49.2438C75.5912 49.911 76.0355 51.3344 76.1696 52.9802C77.6375 52.3129 79.1494 52.0471 80.0839 52.5356C78.5269 54.3148 76.9256 54.8041 75.3243 54.2256ZM58.8642 66.5485C53.0819 67.705 49.5228 58.2302 41.8717 62.5446C47.6101 62.0545 52.9038 72.1967 58.8642 66.5485Z" stroke="#F5F5F5" stroke-width="0.578251" stroke-miterlimit="2.61"/>
<path d="M5.08168 36.4772L4.9031 35.3205M5.16977 34.3419L5.08081 32.8294M6.10409 31.7618L6.23731 30.2495M8.37261 29.8044L8.55053 28.4255M9.57359 31.4062L9.66255 30.2495M10.908 34.253L11.2194 33.052M11.087 36.3885L11.4873 35.2767M2.19086 49.644L1.21228 48.6652M1.16758 47.7322L0.322664 46.3975M0.722992 45.0188L0.0996094 43.7276M1.70114 42.171L1.16715 40.8366M3.56933 43.0163L2.9466 41.8598M6.10495 44.8403L5.39326 43.283M7.35042 46.5748L7.08353 45.2404M13.8448 65.2578L12.7328 64.9905M11.8866 64.3237L10.4632 63.8344M9.92922 62.4106L8.59479 61.7879M8.95064 59.5641L7.79414 58.8966M10.9525 59.0748L9.88495 58.674M14.1108 58.9854L13.1321 58.1847M16.1127 59.6526L15.2665 58.8521" stroke="#F5F5F5" stroke-width="0.222404" stroke-miterlimit="2.61"/>
<path fill-rule="evenodd" clip-rule="evenodd" d="M52.6805 47.7761L53.9264 47.2421C54.056 47.1139 54.2064 47.0087 54.3712 46.9308C54.5491 46.8416 54.7271 46.7528 54.8158 46.6194H54.8605C54.8605 46.7528 54.8158 46.7975 54.7711 46.8416C54.7711 46.8861 54.6379 46.9754 54.6379 47.0195C54.4597 47.2868 54.1486 47.5088 53.7038 47.7314C53.5259 47.8201 53.3032 47.9093 53.0813 48.0428C52.7699 48.176 52.5026 48.2654 52.3691 48.3094C52.1467 48.4874 51.8798 48.6212 51.7466 48.7547C51.7466 48.7981 51.6572 48.8879 51.6572 48.9766C51.6138 49.066 51.6138 49.1105 51.6138 49.1546V49.8667C51.6138 50.1334 51.6572 50.356 51.6572 50.5786C51.6572 50.7118 51.7466 50.8006 51.7913 50.89C51.8799 51.0232 51.9245 51.1119 52.058 51.1566H52.1467C52.2359 50.8453 52.3691 50.6227 52.4138 50.4445C52.592 50.1779 52.7252 49.9552 52.9031 49.822H53.0366C53.0813 49.7773 53.1698 49.7773 53.1698 49.7773C53.3032 49.7773 53.4371 49.822 53.5259 49.822C53.7038 49.9112 53.8819 49.9552 54.0598 49.9999L54.4597 50.1334C54.5044 50.1778 54.5044 50.1779 54.4597 50.2666C54.3265 50.356 54.0151 50.6674 53.7038 51.0679C53.4855 51.3546 53.2136 51.5962 52.9031 51.7792C52.636 52.0018 52.2806 52.1352 51.8798 52.1352C51.7913 52.0465 51.6572 52.0018 51.6132 51.8686C51.524 51.7792 51.48 51.6459 51.48 51.5125C51.3906 51.7351 51.302 51.9126 51.2126 52.0465C51.1232 52.1804 51.0347 52.3578 50.9013 52.4911C50.8125 52.8024 50.768 53.0251 50.7233 53.1585C50.6786 53.3364 50.5899 53.5584 50.4567 53.7363C50.3232 53.781 50.1894 53.8257 50.0561 53.8698C49.8339 53.9592 49.656 54.0039 49.3887 54.0477H49.2557C49.186 54.0801 49.1096 54.0954 49.0329 54.0924C48.9895 54.0477 48.9895 54.0039 49.0329 53.9592C49.167 53.8698 49.3005 53.7809 49.4336 53.6925C49.6115 53.6031 49.7895 53.5584 49.8782 53.4252C50.0564 53.3805 50.1455 53.2917 50.2788 53.2472C50.4141 53.1807 50.5236 53.0712 50.5901 52.9359V52.8471C50.5901 52.758 50.5901 52.6245 50.5467 52.5798C50.5033 52.5798 50.458 52.5364 50.458 52.5364H50.1887C50.1122 52.5394 50.0361 52.5241 49.9667 52.4917C49.922 52.4917 49.8773 52.4025 49.8773 52.3585C49.8339 52.3138 49.8339 52.2691 49.8339 52.1359C49.8339 52.0471 49.8773 51.9133 49.9227 51.7358C49.968 51.5583 50.0561 51.424 50.0561 51.2905C50.1006 51.2458 50.1453 51.2018 50.1453 51.1573C50.1453 51.1128 50.1887 51.1126 50.2341 51.0686H50.3673C50.5014 51.0686 50.5454 51.0685 50.6346 51.1573C50.678 51.2458 50.768 51.3352 50.768 51.424C50.8125 51.5578 50.9013 51.6466 50.9013 51.7798H50.946C50.9894 51.7798 50.9894 51.7364 51.0347 51.7364C51.1239 51.6472 51.2126 51.5585 51.2126 51.4693C51.2973 51.3362 51.3435 51.1823 51.3461 51.0245V49.334C51.4353 48.978 51.524 48.7113 51.6572 48.5334C51.7393 48.3715 51.862 48.2336 52.0133 48.1333L52.6805 47.7774V47.7761ZM53.8372 50.445L53.6146 50.3564L53.1253 50.223H52.9919C52.9031 50.223 52.8586 50.2664 52.8139 50.2664C52.7623 50.3745 52.7028 50.4788 52.636 50.5784C52.5926 50.6218 52.5026 50.7563 52.4585 50.8004C52.4585 50.8898 52.4138 51.023 52.3691 51.0677V51.1564C52.592 51.1564 52.7699 51.1564 52.9919 51.0677C53.1698 51.023 53.3479 50.8898 53.5706 50.7563C53.614 50.7116 53.6591 50.6224 53.7038 50.6224C53.7485 50.579 53.8372 50.489 53.8372 50.4443V50.445ZM42.6717 51.6908L43.1169 51.0683H43.2504C43.3467 51.1329 43.436 51.2073 43.517 51.2903C43.6502 51.4237 43.7843 51.4684 43.8731 51.5129H43.9165C44.0052 51.335 44.1831 51.2016 44.3166 51.0683H44.3613C44.4945 51.1117 44.5839 51.2016 44.6727 51.2903C44.7171 51.335 44.8506 51.4237 45.0285 51.5129V51.6017C44.9617 51.6697 44.8869 51.7294 44.8059 51.7796C44.7625 51.913 44.7171 52.0022 44.6727 52.0469C44.5839 52.1357 44.5392 52.1804 44.4945 52.2689C44.4058 52.2689 44.3613 52.1804 44.2725 52.1804C44.2325 52.1442 44.1874 52.1141 44.1387 52.091C44.0953 52.0476 44.0052 52.0022 43.9165 51.9577C43.8731 51.913 43.8273 51.7796 43.7833 51.7355C43.7386 51.869 43.6939 51.913 43.5606 52.0022C43.4712 52.091 43.3827 52.1804 43.3827 52.2689H43.338C43.2946 52.2689 43.2493 52.2689 43.1599 52.1804C43.1165 52.1357 43.0713 52.1357 43.0266 52.1357L42.8487 51.9577C42.7153 51.913 42.6706 51.7796 42.6265 51.7355L42.6699 51.6908H42.6717ZM48.899 50.3564C48.8102 50.4009 48.677 50.579 48.6323 50.6231C48.6323 50.7123 48.5429 50.801 48.5429 50.9789C48.4544 51.0236 48.4097 51.1124 48.3209 51.1571C48.2414 51.1919 48.1779 51.2554 48.143 51.335C47.8317 51.6909 47.6537 51.9577 47.5643 52.0469C47.2977 52.3136 47.0751 52.447 46.8084 52.4915H46.5417C46.5417 52.4915 46.5417 52.4481 46.6305 52.3583C46.6752 52.3136 46.6752 52.1804 46.6305 52.1357C46.6305 52.1357 46.5417 52.1357 46.497 52.1804C46.4525 52.3136 46.3638 52.4023 46.3191 52.4915C46.2303 52.5802 46.1412 52.6249 46.0524 52.7143C45.6964 52.8916 45.3405 53.0255 44.8065 53.1142C44.4952 53.2036 43.9603 53.2036 43.4719 53.2036C43.0273 53.2036 42.5823 53.2036 42.2713 53.1589C41.9598 53.1589 41.6484 53.0255 41.3817 52.9363C41.2932 52.9363 41.2485 52.8476 41.2485 52.8029C41.2051 52.7595 41.2051 52.6249 41.2051 52.5802V52.3136C41.2051 52.2689 41.1606 52.1804 41.1161 52.1804C41.088 52.1819 41.0608 52.1909 41.0373 52.2065C41.0138 52.222 40.9949 52.2436 40.9825 52.2689C40.9787 52.4357 40.9486 52.6009 40.8935 52.7584V53.4256C40.8935 53.4703 40.9382 53.6035 40.9382 53.6482C40.9816 53.7814 41.1161 53.8702 41.2943 53.9596C41.2943 54.0043 41.4275 54.0043 41.6944 54.0928C42.0058 54.0928 42.3173 54.1375 42.6287 54.1375C42.9841 54.1375 43.2961 54.1375 43.6513 54.0928C43.9187 54.0481 44.2747 54.0043 44.5861 53.9596C45.0307 53.8261 45.3867 53.7367 45.6534 53.6035C46.0092 53.3809 46.2759 53.1142 46.4541 52.7584C46.4985 52.8018 46.5432 52.8476 46.632 52.8476C46.7207 52.8476 46.7652 52.8476 46.8099 52.891H46.8993C46.9878 52.891 47.166 52.8476 47.2107 52.8022C47.3275 52.7483 47.4331 52.6728 47.5218 52.5796C47.6106 52.4464 47.7438 52.3129 47.8332 52.135C48.0113 51.9571 48.1445 51.7789 48.3225 51.7349C48.3672 51.6902 48.4112 51.6902 48.4559 51.6902C48.5444 51.6902 48.5891 51.7349 48.7673 51.7789C48.8565 51.7789 48.9005 51.8683 48.9452 51.8683C49.0337 51.8683 49.1678 51.7789 49.2566 51.7349C49.301 51.6457 49.3457 51.557 49.4345 51.5123C49.4345 51.4678 49.4792 51.4231 49.5232 51.3344V51.1564C49.4345 51.023 49.3457 50.8898 49.2119 50.7563C49.078 50.6229 48.9897 50.4443 48.9452 50.3558L48.899 50.3564ZM35.3764 54.9826L35.9989 54.4489H36.0436C36.0881 54.5374 36.177 54.6268 36.266 54.7155C36.355 54.8488 36.4882 54.8935 36.5774 54.9826C36.5744 55.0166 36.5589 55.0482 36.534 55.0714L36.0447 55.5162C36.0448 55.5221 36.0438 55.528 36.0416 55.5334C36.0394 55.5389 36.0361 55.5439 36.0319 55.5481C36.0277 55.5522 36.0227 55.5555 36.0172 55.5577C36.0118 55.5598 36.0059 55.5609 36 55.5607C35.911 55.5607 35.8668 55.5607 35.8668 55.5162C35.8221 55.5162 35.7778 55.5162 35.7778 55.4728C35.6886 55.3834 35.6444 55.3387 35.5997 55.2949C35.4664 55.1614 35.4217 55.1167 35.3775 55.0276V54.9842L35.3764 54.9826ZM39.3354 53.2034H39.4241C39.4688 53.2468 39.5578 53.3366 39.6468 53.4254C39.7357 53.5586 39.8692 53.6033 39.9581 53.648C39.9246 53.7148 39.8794 53.775 39.8247 53.8259C39.7357 53.8693 39.691 54.0041 39.6468 54.0479C39.6021 54.0479 39.6021 54.0926 39.5578 54.1373C39.5135 54.182 39.4241 54.226 39.3354 54.182C39.2464 54.182 39.1575 54.0926 39.1128 54.0479C39.0238 53.9594 38.8904 53.8259 38.8461 53.7365L39.3354 53.2034ZM39.3354 52.6247C39.2017 52.8027 39.0685 52.9361 38.8904 53.114C38.8014 53.114 38.7124 53.0253 38.6235 52.9361C38.4903 52.8914 38.4456 52.8473 38.4011 52.7582C38.3577 52.7148 38.3121 52.6247 38.3121 52.58L38.5792 52.3134C38.6348 52.1976 38.71 52.0922 38.8014 52.002H38.8461C39.0685 52.1801 39.2017 52.3134 39.2017 52.3134C39.2464 52.3581 39.3354 52.4021 39.4688 52.4913L39.8692 52.0467H39.9581C40.0471 52.1354 40.136 52.2687 40.1803 52.3134C40.2799 52.3798 40.3839 52.4392 40.4917 52.4913V52.58C40.4918 52.5858 40.4909 52.5916 40.4888 52.597C40.4867 52.6025 40.4835 52.6074 40.4794 52.6116C40.4754 52.6157 40.4705 52.619 40.4652 52.6213C40.4598 52.6236 40.4541 52.6247 40.4483 52.6247L40.0033 53.114L39.9599 53.1587C39.9152 53.1587 39.8709 53.114 39.8264 53.114C39.7375 53.114 39.7375 53.0253 39.6928 53.0253C39.6038 52.9361 39.5595 52.8914 39.5148 52.8474C39.4472 52.7803 39.3876 52.7056 39.3371 52.6247H39.3354ZM35.2429 52.6247C35.2429 53.1587 35.2863 53.4254 35.3317 53.4709C35.3764 53.7821 35.5986 54.0049 35.7767 54.0935C35.8657 54.0935 35.9099 54.1382 36.0436 54.1382C36.2215 54.1382 36.4439 54.0935 36.5774 53.9602C36.7553 53.8268 36.9332 53.6936 37.0667 53.4709L37.9129 52.2695V52.0916C37.9129 52.0482 37.8695 52.0482 37.8695 52.0029C37.3802 52.0029 36.9352 51.9584 36.4901 51.9137C36.4901 51.9137 36.4901 51.8703 36.5793 51.7802C36.713 51.6023 36.9352 51.5136 37.1131 51.4244C37.3145 51.3038 37.5458 51.2421 37.7805 51.2463C37.8239 51.2463 37.9137 51.291 38.0472 51.4244C38.1808 51.4691 38.2698 51.5136 38.3141 51.5136H38.403C38.5812 51.4691 38.7144 51.3357 38.8481 51.1577C38.9799 51.0206 39.099 50.8717 39.2037 50.7129C39.2484 50.6237 39.2484 50.5797 39.2037 50.5797H39.1147C39.0337 50.6626 38.9443 50.737 38.8481 50.8017C38.7144 50.9796 38.5812 51.069 38.403 51.069H38.3141C38.2201 50.9691 38.1158 50.8795 38.0029 50.8017C37.8695 50.8017 37.7358 50.8464 37.5579 50.8911C37.4689 50.8911 37.2023 51.069 36.9794 51.1577C36.713 51.3357 36.5348 51.5136 36.3569 51.6023C36.2235 51.7802 36.1345 52.0029 36.0455 52.2695C36.0455 52.2695 36.09 52.3142 36.1345 52.3142H36.2235C36.6238 52.3589 37.0241 52.3589 37.4245 52.403C37.3811 52.4922 37.3355 52.5809 37.2023 52.6256C37.2023 52.715 37.1131 52.759 36.9794 52.8923C36.8905 52.937 36.713 53.0261 36.6238 53.1149C36.4901 53.1149 36.3569 53.1596 36.2235 53.1596C36.09 53.1596 35.9119 53.1149 35.8229 52.9814C35.6895 52.8923 35.6452 52.759 35.6005 52.5809C35.6005 52.403 35.6005 52.181 35.5116 51.9584V50.7129C35.5116 50.2677 35.6005 49.8233 35.6452 49.3785C35.6452 49.3338 35.6005 49.2891 35.6005 49.2891C35.5116 49.2891 35.5116 49.3338 35.4673 49.3338C35.4673 49.3338 35.4226 49.5117 35.3336 49.8231C35.2902 49.9123 35.2449 50.001 35.2449 50.1345V52.6256L35.2429 52.6247ZM37.0222 49.4662L37.5559 48.8881H37.5993C37.7776 49.0215 37.9111 49.1549 37.9999 49.2882C37.9999 49.3329 38.0433 49.3329 38.1331 49.3776C38.1585 49.4005 38.1745 49.4321 38.1778 49.4662C37.9999 49.6443 37.8217 49.8222 37.5993 50.0001C37.5651 49.9969 37.5334 49.9809 37.5104 49.9554C37.467 49.9554 37.4214 49.9121 37.3772 49.9121C37.2882 49.8229 37.1992 49.7782 37.1545 49.7341C37.1111 49.6007 37.0211 49.5562 37.0211 49.4668L37.0222 49.4662ZM30.2611 53.2913L30.35 53.2468C30.528 53.1134 30.7951 52.9354 31.0173 52.802H31.062C31.1509 52.9799 31.4176 53.2468 31.5066 53.4694V53.558C31.4176 53.558 31.3286 53.6921 31.1952 53.7359C31.0617 53.7797 30.973 53.8693 30.8393 53.9587C30.7504 53.9587 30.6616 53.9587 30.6616 53.8693C30.6169 53.8259 30.528 53.7359 30.528 53.7359C30.4846 53.6474 30.3947 53.4694 30.35 53.4247C30.3054 53.38 30.2611 53.336 30.2611 53.2913ZM34.8428 51.7347C34.8875 51.69 34.8875 51.69 34.8428 51.69C34.8087 51.6932 34.777 51.7092 34.7541 51.7347C34.6204 51.7347 34.4425 51.9569 34.3535 52.0013C34.1758 52.046 34.0422 52.0901 33.9087 52.0901C33.5529 52.0901 33.1526 52.0467 32.7969 52.0013C32.4413 51.956 31.9958 51.8681 31.5955 51.69C31.1062 51.5568 30.7059 51.4229 30.35 51.2894C30.1723 51.1562 29.8163 50.9781 29.6384 50.8001C29.6384 50.7568 29.5494 50.7114 29.5049 50.6222C29.5049 50.5788 29.5483 50.4441 29.5483 50.3556L29.6373 50.1774C29.6373 50.1774 29.6373 50.1329 29.682 50.0442C29.6822 50.0383 29.6811 50.0324 29.6789 50.0269C29.6768 50.0214 29.6735 50.0164 29.6693 50.0122C29.6651 50.008 29.6601 50.0047 29.6546 50.0025C29.6491 50.0003 29.6432 49.9993 29.6373 49.9995H29.5038C29.4149 50.2221 29.3704 50.3556 29.2369 50.4888C29.2369 50.6222 29.1925 50.7557 29.1037 50.8895C29.1037 50.9781 29.059 51.0228 29.059 51.1115C29.059 51.1562 29.0156 51.2447 29.0156 51.3341C29.059 51.4229 29.059 51.5121 29.1048 51.6008C29.238 51.7347 29.327 51.7787 29.4604 51.9122C29.7718 52.046 30.2166 52.268 30.6169 52.3574C31.036 52.4929 31.4685 52.5823 31.9069 52.6241C32.3074 52.7575 32.7531 52.7575 33.1081 52.802C33.4639 52.802 33.7755 52.7135 34.1311 52.4906C34.4425 52.3131 34.6651 52.0905 34.8428 51.7351V51.7347Z" fill="#F5F5F5"/>
</g>
<defs>
<clipPath id="clip0_15226_7193">
<rect width="83.8285" height="70" fill="white"/>
</clipPath>
</defs>
</svg>
